<svg version="1.1" xmlns="http://www.w3.org/2000/svg" xmlns:xlink="http://www.w3.org/1999/xlink" xmlns:i="http://ns.adobe.com/AdobeIllustrator/10.0/" xmlns:sketch="http://www.bohemiancoding.com/sketch/ns" height="100%" width="100%" x="0px" y="0px" viewBox="0 0 640 480" xml:space="preserve" preserveAspectRatio="xMidYMid meet" class=""><defs><linearGradient id="textGradient3106039123"><stop offset="0.05" stop-color="#B68648"></stop><stop offset="0.95" stop-color="#FBF3A3"></stop></linearGradient></defs>{{text2Gradient}}<rect x="0px" y="0px" width="100%" height="100%" fill="#1d3c34"></rect><g class="logo-container-box logoContainerBox" transform="scale(0.99) translate(3.232338491112273,2.424257683031499)"><g class="containerBody" transform="scale(0.9053932859635817) translate(45.827058848138506,25.078175109919812)"><g class="sampleIconBox" transform="scale(1) translate(8,0)"><g class="sampleIcons_1" transform="scale(1.6344841423448357) translate(19.401212166095604,100.21681611291294)" fill="#ffffff"><g><g><path d="M45.087,47.869L39.198,2.262H28.163l-5.885,45.607c-4.471,4.188-7.094,10.547-7.094,17.443v20.08h2.344   c0.027,2.656,2.732,4.811,6.059,4.811h20.182c3.324,0,6.029-2.154,6.057-4.811h2.352v-20.08   C52.177,58.418,49.556,52.059,45.087,47.869z M30.37,4.772h6.623l5.352,41.474H25.021L30.37,4.772z M43.769,87.693H23.587   c-1.904,0-3.512-1.051-3.547-2.301h27.273C47.278,86.643,45.673,87.693,43.769,87.693z M49.667,82.883H17.694v-17.57   c0-6.752,2.754-12.906,7.385-16.557h17.205c4.631,3.65,7.383,9.805,7.383,16.557V82.883z"></path><path d="M33.681,57.832c-5.84,0-10.594,4.752-10.594,10.592c0,5.842,4.754,10.596,10.594,10.596   c5.842,0,10.594-4.754,10.594-10.596C44.274,62.584,39.522,57.832,33.681,57.832z M33.681,76.51c-4.457,0-8.084-3.627-8.084-8.086   c0-4.457,3.627-8.082,8.084-8.082s8.084,3.625,8.084,8.082C41.765,72.883,38.138,76.51,33.681,76.51z"></path><path d="M41.015,51.443l-1.504,2.008c1.725,1.295,3.158,3.123,4.143,5.289l2.285-1.041C44.778,55.152,43.077,52.988,41.015,51.443z   "></path><rect x="35.216" y="13.07" transform="matrix(0.9923 -0.1237 0.1237 0.9923 -2.5776 4.6907)" width="2.51" height="20.051"></rect><path d="M39.302,37.735c-0.465-0.465-1.293-0.465-1.77,0.012c-0.24,0.227-0.365,0.553-0.365,0.879c0,0.338,0.125,0.652,0.365,0.891   c0.238,0.238,0.551,0.365,0.891,0.365c0.326,0,0.652-0.127,0.891-0.365c0.227-0.238,0.365-0.553,0.365-0.891   C39.679,38.299,39.54,37.985,39.302,37.735z"></path><rect x="68.504" y="60.12" transform="matrix(0.9923 0.1237 -0.1237 0.9923 9.2164 -8.0933)" width="2.51" height="20.048"></rect><path d="M71.704,55.857c0.328,0,0.654-0.125,0.893-0.363s0.363-0.564,0.363-0.891s-0.125-0.652-0.363-0.891   c-0.477-0.465-1.307-0.465-1.783,0c-0.225,0.238-0.363,0.564-0.363,0.891s0.139,0.652,0.377,0.891   C71.054,55.732,71.38,55.857,71.704,55.857z"></path><path d="M45.938,61.982c0.328,0,0.654-0.125,0.893-0.363s0.363-0.564,0.363-0.891s-0.125-0.652-0.363-0.891   c-0.477-0.465-1.307-0.465-1.783,0c-0.225,0.238-0.363,0.564-0.363,0.891s0.139,0.652,0.377,0.891   C45.287,61.857,45.613,61.982,45.938,61.982z"></path><path d="M68.226,16.108h0.82l1.715-9.695h-7.58l1.713,9.695h0.822v28.377H55.452l6,46.49h11.035l6.002-46.49H68.226V16.108z    M67.767,8.922l-0.797,4.51l-0.795-4.51H67.767z M70.28,88.465h-6.623l-5.35-41.469h17.326L70.28,88.465z"></path></g></g></g></g><g class="sampleTexts_1" transform="scale(1) translate(-7.999993896484369,5.9208526611328125)"><g class="logo--name svgLogoName_1 logoNameBox" transform="scale(1) translate(193.03000011444092,239.0199966430664)" fill="url(#textGradient3106039123)"><path d="M64.75-71.09L64.75 0L47.71 0L22.51-44.24L22.51 0L5.37 0L5.37-71.09L22.51-71.09L47.66-26.86L47.66-71.09L64.75-71.09ZM122.04 0L105.59 0L105.59 0Q104.71-1.61 104.03-4.74L104.03-4.74L104.03-4.74Q99.49 0.98 91.33 0.98L91.33 0.98L91.33 0.98Q83.86 0.98 78.64-3.54L78.64-3.54L78.64-3.54Q73.41-8.06 73.41-14.89L73.41-14.89L73.41-14.89Q73.41-23.49 79.76-27.88L79.76-27.88L79.76-27.88Q86.11-32.28 98.22-32.28L98.22-32.28L103.29-32.28L103.29-35.06L103.29-35.06Q103.29-42.33 97.00-42.33L97.00-42.33L97.00-42.33Q91.14-42.33 91.14-36.57L91.14-36.57L74.68-36.57L74.68-36.57Q74.68-44.24 81.20-49.02L81.20-49.02L81.20-49.02Q87.72-53.81 97.83-53.81L97.83-53.81L97.83-53.81Q107.93-53.81 113.79-48.88L113.79-48.88L113.79-48.88Q119.65-43.95 119.80-35.35L119.80-35.35L119.80-11.96L119.80-11.96Q119.90-4.69 122.04-0.83L122.04-0.83L122.04 0ZM95.29-10.74L95.29-10.74L95.29-10.74Q98.36-10.74 100.39-12.06L100.39-12.06L100.39-12.06Q102.42-13.38 103.29-15.04L103.29-15.04L103.29-23.49L98.51-23.49L98.51-23.49Q89.92-23.49 89.92-15.77L89.92-15.77L89.92-15.77Q89.92-13.53 91.43-12.13L91.43-12.13L91.43-12.13Q92.94-10.74 95.29-10.74ZM147.26-52.83L147.26 0L130.76 0L130.76-52.83L147.26-52.83ZM129.78-66.46L129.78-66.46L129.78-66.46Q129.78-69.97 132.32-72.22L132.32-72.22L132.32-72.22Q134.86-74.46 138.91-74.46L138.91-74.46L138.91-74.46Q142.97-74.46 145.51-72.22L145.51-72.22L145.51-72.22Q148.04-69.97 148.04-66.46L148.04-66.46L148.04-66.46Q148.04-62.94 145.51-60.69L145.51-60.69L145.51-60.69Q142.97-58.45 138.91-58.45L138.91-58.45L138.91-58.45Q134.86-58.45 132.32-60.69L132.32-60.69L132.32-60.69Q129.78-62.94 129.78-66.46ZM175.75-75L175.75 0L159.25 0L159.25-75L175.75-75ZM214.55-14.84L214.55-14.84L214.55-14.84Q214.55-16.94 212.35-18.21L212.35-18.21L212.35-18.21Q210.15-19.48 204-20.85L204-20.85L204-20.85Q197.85-22.22 193.84-24.44L193.84-24.44L193.84-24.44Q189.84-26.66 187.74-29.83L187.74-29.83L187.74-29.83Q185.64-33.01 185.64-37.11L185.64-37.11L185.64-37.11Q185.64-44.38 191.65-49.10L191.65-49.10L191.65-49.10Q197.65-53.81 207.37-53.81L207.37-53.81L207.37-53.81Q217.82-53.81 224.17-49.07L224.17-49.07L224.17-49.07Q230.51-44.34 230.51-36.62L230.51-36.62L214.01-36.62L214.01-36.62Q214.01-42.97 207.32-42.97L207.32-42.97L207.32-42.97Q204.73-42.97 202.97-41.53L202.97-41.53L202.97-41.53Q201.22-40.09 201.22-37.94L201.22-37.94L201.22-37.94Q201.22-35.74 203.37-34.38L203.37-34.38L203.37-34.38Q205.51-33.01 210.23-32.13L210.23-32.13L210.23-32.13Q214.94-31.25 218.50-30.03L218.50-30.03L218.50-30.03Q230.42-25.93 230.42-15.33L230.42-15.33L230.42-15.33Q230.42-8.11 224.00-3.56L224.00-3.56L224.00-3.56Q217.57 0.98 207.37 0.98L207.37 0.98L207.37 0.98Q200.58 0.98 195.26-1.46L195.26-1.46L195.26-1.46Q189.94-3.91 186.96-8.11L186.96-8.11L186.96-8.11Q183.98-12.30 183.98-16.94L183.98-16.94L199.36-16.94L199.36-16.94Q199.46-13.28 201.80-11.60L201.80-11.60L201.80-11.60Q204.15-9.91 207.81-9.91L207.81-9.91L207.81-9.91Q211.18-9.91 212.86-11.28L212.86-11.28L212.86-11.28Q214.55-12.65 214.55-14.84ZM298.07-37.99L298.07-8.79L298.07-8.79Q294.11-4.39 286.49-1.71L286.49-1.71L286.49-1.71Q278.88 0.98 269.79 0.98L269.79 0.98L269.79 0.98Q255.83 0.98 247.48-7.57L247.48-7.57L247.48-7.57Q239.13-16.11 238.54-31.35L238.54-31.35L238.50-37.50L238.50-37.50Q238.50-48.00 242.21-55.83L242.21-55.83L242.21-55.83Q245.92-63.67 252.83-67.90L252.83-67.90L252.83-67.90Q259.74-72.12 268.82-72.12L268.82-72.12L268.82-72.12Q282.10-72.12 289.45-66.04L289.45-66.04L289.45-66.04Q296.80-59.96 298.02-47.90L298.02-47.90L281.51-47.90L281.51-47.90Q280.63-53.86 277.71-56.40L277.71-56.40L277.71-56.40Q274.78-58.94 269.40-58.94L269.40-58.94L269.40-58.94Q262.96-58.94 259.44-53.47L259.44-53.47L259.44-53.47Q255.93-48.00 255.88-37.84L255.88-37.84L255.88-33.54L255.88-33.54Q255.88-22.90 259.52-17.55L259.52-17.55L259.52-17.55Q263.15-12.21 270.97-12.21L270.97-12.21L270.97-12.21Q277.66-12.21 280.93-15.19L280.93-15.19L280.93-26.22L269.01-26.22L269.01-37.99L298.07-37.99ZM369.23-37.35L369.23-34.08L369.23-34.08Q369.23-23.68 365.38-15.67L365.38-15.67L365.38-15.67Q361.52-7.67 354.41-3.34L354.41-3.34L354.41-3.34Q347.31 0.98 338.23 0.98L338.23 0.98L338.23 0.98Q329.14 0.98 322.11-3.20L322.11-3.20L322.11-3.20Q315.08-7.37 311.15-15.14L311.15-15.14L311.15-15.14Q307.22-22.90 307.03-32.96L307.03-32.96L307.03-36.96L307.03-36.96Q307.03-47.41 310.86-55.40L310.86-55.40L310.86-55.40Q314.69-63.38 321.84-67.72L321.84-67.72L321.84-67.72Q329.00-72.07 338.13-72.07L338.13-72.07L338.13-72.07Q347.16-72.07 354.24-67.77L354.24-67.77L354.24-67.77Q361.32-63.48 365.25-55.54L365.25-55.54L365.25-55.54Q369.18-47.61 369.23-37.35L369.23-37.35ZM351.80-33.79L351.80-37.06L351.80-37.06Q351.80-47.66 348.26-53.15L348.26-53.15L348.26-53.15Q344.72-58.64 338.13-58.64L338.13-58.64L338.13-58.64Q325.24-58.64 324.51-39.31L324.51-39.31L324.46-34.08L324.46-34.08Q324.46-23.63 327.92-18.02L327.92-18.02L327.92-18.02Q331.39-12.40 338.23-12.40L338.23-12.40L338.23-12.40Q344.72-12.40 348.24-17.92L348.24-17.92L348.24-17.92Q351.75-23.44 351.80-33.79L351.80-33.79Z"></path></g><g id="" class="logo--name svgSloganText_1 sloganBox" transform="scale(1) translate(198.39792504310608,283.1884033203125)" fill="#ffffff"><path d="M20.40-25.09C19.92-25.50 19.35-25.77 18.73-26.01C17.20-26.66 15.74-26.93 14.11-26.52C12.55-26.11 11.05-25.30 9.86-24.21C9.04-23.46 7.62-22.20 7.45-21.01L7.68-21.35C7.34-20.71 7.11-20.06 6.97-19.45C6.94-19.45 7.04-19.99 7.07-19.99C6.53-19.99 6.70-17.92 6.73-17.61C6.80-16.22 7.17-14.79 7.72-13.50C8.47-11.73 9.28-10.00 9.96-8.23L10.57-6.70C10.64-6.46 10.74-6.19 10.85-5.95C10.88-5.95 11.02-5.68 11.02-5.71C11.05-5.44 11.12-5.24 11.19-5.00C11.12-5.17 10.98-5.41 10.98-5.54C10.91-5.30 11.12-5.00 11.19-4.83C11.25-4.49 11.29-4.18 11.29-3.84C11.22-2.96 10.91-2.11 10.47-1.36C9.59 0.10 8.13 1.29 6.49 1.80C5.30 2.14 3.84 2.14 3.30 0.85C2.82-0.20 3.03-1.50 3.26-2.58C3.40-3.20 3.57-3.81 3.84-4.39C4.05-4.93 5.13-6.39 4.83-6.94C4.08-8.26 1.56-4.93 1.22-4.39C-0.20-2.07-0.88 1.70 2.04 3.20C4.08 4.22 6.77 4.05 8.81 3.23C9.52 2.96 12.61 1.67 12.58 0.65L11.90 1.12C14.25-0.92 15.20-3.40 14.28-6.46C13.84-7.89 13.02-9.04 12.24-10.30C11.66-11.32 11.49-12.31 11.02-13.36C11.66-12.07 12.44-10.81 13.12-9.52C11.73-12.72 9.04-16.52 10.85-20.09C11.66-21.69 13.12-23.02 14.72-23.80C15.64-24.24 16.73-24.62 17.78-24.58C19.04-24.48 18.77-23.66 18.77-22.81C18.84-23.32 19.14-23.87 18.63-24.38C18.16-24.79 17.37-24.65 16.80-24.55C15.47-24.31 14.25-23.77 13.19-22.98C13.94-23.56 14.79-24.04 15.67-24.34C16.46-24.62 17.61-24.96 18.39-24.62C20.33-23.73 17.85-20.03 16.93-18.77C17.10-19.07 17.37-19.65 17.44-19.72C16.97-19.75 16.01-17.37 15.78-17.24C14.96-16.39 15.95-16.29 16.63-16.69C17.37-17.14 17.99-17.85 18.56-18.43C19.35-19.24 20.06-20.09 20.67-21.01C21.08-21.62 21.83-22.61 21.42-23.36C21.15-24.00 20.98-24.62 20.40-25.09ZM1.39 2.45C-0.37 0.24 0.44-2.69 2.04-4.86C0.65-2.86 0.07 0.78 1.39 2.45ZM10.17-17.34C10.20-17.17 10.17-17 10.17-16.86ZM30.77-17.68C30.74-18.16 30.23-17.78 29.95-17.78C28.59-17.71 27.23-17.71 25.91-17.65C25.91-17.68 25.98-17.82 26.08-18.02C25.94-17.78 25.84-17.65 25.74-17.65C26.76-19.72 27.85-21.79 29.14-23.70C29.10-23.63 28.59-22.78 28.63-22.78C28.73-22.75 29.99-24.48 30.02-24.72C30.02-24.85 29.72-24.51 29.72-24.55C29.92-24.75 30.26-24.92 30.36-25.19C30.60-25.87 29.89-26.18 29.38-26.28C28.32-26.49 27.13-26.35 26.45-25.47C25.81-24.68 25.33-23.77 24.92-22.85C24.72-22.44 24.45-22.34 24.17-21.96C23.77-21.39 23.49-20.71 23.19-20.06C22.92-19.48 22.64-18.87 22.41-18.26C22.27-17.95 22.27-17.71 21.96-17.61C21.66-17.48 21.08-17.58 20.74-17.54C19.41-17.37 18.12-17.44 16.80-17.31C16.12-17.27 15.44-17.27 14.79-17.03C14.65-17 13.91-16.83 13.84-16.73C13.63-16.35 14.45-16.32 14.62-16.29C15.91-16.12 17.54-15.98 18.84-16.22C19.72-16.39 20.64-16.32 21.59-16.39C21.11-15.37 20.74-14.28 20.37-13.19L19.96-12.00C19.82-11.63 19.38-10.91 19.38-10.51C19.38-10.44 19.48-10.61 19.55-10.78C19.38-10.27 19.18-9.76 19.04-9.25C19.04-9.28 19.14-9.69 19.11-9.69C18.94-9.69 18.26-7.62 18.19-7.45C17.85-6.43 17.48-5.41 17.31-4.32C17.10-3.23 16.83-2.18 16.59-1.12C16.46-0.58 16.32-0.07 16.25 0.48C16.18 0.75 16.12 1.05 16.12 1.33C16.12 1.39 16.12 1.84 16.18 1.70L16.12 2.38L16.12 1.87C15.91 2.11 16.12 3.20 16.15 3.40C16.29 4.08 16.63 4.69 17.24 5.10C17.78 5.51 18.63 5.88 19.28 5.58C20.13 5.17 20.84 4.22 21.39 3.54C22.58 2.14 23.66 0.68 24.75-0.78C25.74-2.14 26.76-3.47 27.61-4.90C28.08-5.71 29.00-6.46 29.31-7.38C29.48-7.82 29.38-8.36 28.83-8.26C28.39-8.16 27.78-6.97 27.51-6.63C26.28-5.10 25.13-3.54 23.90-2.01L21.93 0.41C21.62 0.75 21.32 1.12 20.98 1.46C20.84 1.63 19.99 2.31 20.03 2.52C20.03 2.58 20.40 2.28 20.54 2.18C20.37 2.38 20.16 2.55 19.99 2.72C20.03 2.69 19.31 3.09 19.21 3.03C18.56 2.75 19.14 0.78 19.24 0.31C19.86-2.45 20.77-5.24 21.69-7.89C22.24-9.35 22.78-10.74 23.39-12.17C23.70-12.89 24.00-13.63 24.34-14.35L24.82-15.64L24.45-14.89C24.68-15.50 25.02-16.42 25.23-16.46L25.13-16.25C25.19-16.35 25.26-16.42 25.33-16.46C25.70-16.69 26.66-16.46 27.10-16.46C27.40-16.46 27.78-16.42 28.08-16.52C28.29-16.59 28.22-16.69 28.46-16.76C28.87-16.83 29.38-16.56 29.82-16.69C30.23-16.80 30.80-17.17 30.77-17.65ZM24.31-15.71C22.78-12.48 21.62-9.01 20.40-5.64C19.82-4.11 19.28-2.52 18.90-0.92L18.73-0.27C18.97-1.50 19.24-2.69 19.58-3.88C20.33-6.49 21.28-9.08 22.41-11.56C24.31-15.81 26.01-20.37 28.73-24.21C26.89-21.59 25.67-18.60 24.31-15.71ZM26.55-19.07L27.37-20.64C27.20-20.60 26.89-19.86 26.55-19.07ZM23.05-11.66C22.81-11.02 22.54-10.40 22.27-9.79C22.54-10.44 22.78-11.12 23.09-11.80C23.05-11.73 23.05-11.70 23.05-11.66ZM26.11-18.09L26.45-18.84C26.35-18.56 26.21-18.29 26.11-18.09ZM18.70 3.33C18.67 3.33 18.63 3.30 18.60 3.26ZM43.49-8.30C43.38-8.94 41.82-7.14 41.75-7.07C40.77-6.02 39.81-4.86 38.66-3.94C38.11-3.54 37.88-3.30 37.91-4.11C37.94-4.83 38.22-5.58 38.42-6.22C38.52-6.56 39.20-7.85 39.00-8.09C38.96-8.13 38.90-8.02 38.83-7.96C39.30-8.91 40.46-10.54 38.93-10.98C37.20-11.46 36.31-9.59 35.56-8.47C34.85-7.45 34.17-6.46 33.35-5.54C32.74-4.83 31.79-3.47 30.80-3.20C29.89-2.89 30.50-4.39 30.63-4.90C30.74-5.17 31.96-8.33 32.03-8.30C31.96-8.30 31.89-8.26 31.82-8.16C32.20-8.98 32.61-9.79 33.05-10.57C32.95-10.37 32.84-10.03 32.84-10.03C33.01-10.00 33.83-11.66 33.76-11.66C33.69-11.63 33.63-11.56 33.56-11.46C33.83-11.93 34.17-12.17 33.56-12.65C32.95-13.12 31.86-13.23 31.25-12.68C30.50-12.07 30.02-10.98 29.65-10.13C29.41-9.66 29.00-9.38 28.76-8.84C28.29-7.79 28.02-6.73 27.74-5.64C27.47-4.59 27.30-3.50 27.47-2.41C27.57-1.94 27.74-1.39 28.12-1.05C28.22-0.99 29.21-0.61 29.14-0.85C29.07-0.85 29.00-0.85 28.97-0.88C29.34-0.88 29.72-1.05 30.06-1.26C30.09-1.22 29.78-1.09 29.78-1.05C30.12-0.61 32.71-3.23 32.95-3.54C33.80-4.62 34.65-5.68 35.53-6.73C35.09-5.54 34.34-3.91 35.05-2.62C35.46-1.94 36.24-1.56 36.99-1.63C38.59-1.73 40.02-3.47 41.00-4.52C41.65-5.24 42.30-5.98 42.77-6.80C42.98-7.14 43.52-7.89 43.49-8.30ZM38.32-7.62C38.25-7.41 38.22-7.14 38.11-6.97C38.11-6.94 38.08-6.90 38.05-6.87C38.08-6.90 38.08-6.94 38.08-6.97C37.81-7.82 38.83-8.91 39.17-9.76C38.90-9.01 38.56-8.33 38.32-7.62ZM30.23-3.23C30.02-4.22 30.74-5.58 31.11-6.49C30.63-5.17 30.16-3.54 30.23-3.23ZM35.53-6.56C35.53-6.70 35.56-6.80 35.67-6.87C35.60-6.77 35.56-6.66 35.53-6.56ZM61.10-8.30L61.10-8.33C60.89-9.45 59.36-7.58 59.16-7.41C58.17-6.32 57.26-5.13 56.37-3.94C55.49-2.72 54.64-1.50 53.72-0.27C53.28 0.34 52.84 0.92 52.33 1.46C52.16 1.67 51.75 2.24 51.44 2.24C50.25 2.24 51.17-2.55 51.31-3.30C51.51-4.62 51.61-6.39 52.46-7.45C52.67-7.72 54.98-10.68 54.98-10.68C54.91-10.71 54.64-10.37 54.47-10.17L55.93-12.14L56.03-12.27L56.07-12.27L56.03-12.27L56.30-12.65C56.34-12.61 56.30-12.55 56.27-12.48L56.58-12.82L57.46-13.97C58.11-14.89 58.72-15.88 59.30-16.83C60.21-18.39 61.47-20.64 60.79-22.54C60.28-23.94 58.41-24.21 57.15-23.73C56.24-23.39 55.45-22.68 54.81-21.93C54.47-21.49 54.13-21.01 53.82-20.50C53.72-20.37 53.28-19.28 53.18-19.14L53.21-19.14C53.01-18.77 52.80-18.39 52.67-18.02C52.73-18.29 52.90-18.84 53.04-18.94C52.77-18.73 52.53-17.75 52.46-17.65C51.17-14.82 50.05-11.97 49.23-8.98C48.31-10.03 46.85-11.83 45.25-11.19C43.93-10.64 42.94-9.25 42.26-8.02C41.65-6.94 41.48-5.81 41.04-4.76C40.26-2.96 39.88 0.75 42.53 1.29C43.35 1.46 44.10 0.95 44.74 0.51C45.90-0.34 46.99-1.33 48.01-2.35C47.84-0.54 47.46 2.18 48.93 3.60C50.73 5.44 52.53 2.96 53.62 1.60C55.01-0.17 56.10-2.14 57.49-3.84C58.17-4.66 58.85-5.47 59.57-6.22C60.11-6.77 61.20-7.45 61.10-8.30ZM48.59-6.05C48.55-5.95 48.55-5.88 48.55-5.88C48.42-5.07 48.42-4.35 47.84-3.77C47.33-3.23 46.78-2.72 46.24-2.21C45.73-1.73 44.51-0.34 43.72-0.41C42.77-0.51 43.49-2.69 43.96-4.01C43.45-2.65 42.64-0.44 43.76-0.37C44.06-0.34 44.57-0.61 45.02-0.99C44.61-0.61 43.93-0.10 43.52-0.31C42.74-0.65 43.42-2.58 43.55-3.13C44.00-4.69 44.64-6.19 45.39-7.62C45.76-8.33 46.31-9.49 47.02-9.55L46.85-9.45C46.89-9.49 46.92-9.49 46.95-9.49C47.19-9.55 47.43-9.38 47.60-9.25C48.04-8.94 48.31-8.36 48.62-7.92C48.96-7.38 48.72-6.80 48.59-6.19ZM54.06-13.91C54.06-13.94 54.06-14.01 54.09-14.04L54.09-14.08C54.13-14.18 54.16-14.21 54.16-14.21L54.16-14.25C54.94-16.42 55.79-18.60 57.02-20.57C57.32-21.08 58.21-22.64 58.99-22.20C59.30-22.03 59.36-21.59 59.36-21.28C59.50-19.24 57.87-16.83 56.85-15.20C55.66-13.29 54.33-11.42 52.94-9.69L53.69-10.47L54.37-11.32L52.63-9.08L52.39-8.77L52.26-8.64C52.29-8.84 52.46-9.04 52.63-9.28C52.56-9.21 52.50-9.15 52.46-9.08C52.90-10.54 53.38-12.00 53.89-13.46C53.86-13.43 53.89-13.50 53.92-13.63L54.03-13.80C54.03-13.84 54.03-13.87 54.06-13.91ZM51.20-11.12C51.14-10.95 50.93-10.17 50.83-10.06C50.83-10.03 50.80-10.00 50.76-10.00C51.03-10.34 50.86-10.78 51.00-11.19C51.07-11.39 51.41-11.76 51.48-12.04C51.48-11.76 51.31-11.29 51.20-11.12ZM45.80-1.70C46.65-2.45 47.46-3.23 48.25-4.05C48.18-3.60 47.12-2.86 46.75-2.52C46.31-2.07 45.80-1.63 45.29-1.22L45.25-1.22ZM51.82-14.21C51.68-13.80 51.51-13.43 51.31-13.06C51.48-13.57 51.58-14.08 51.82-14.55C52.02-14.93 52.26-15.40 52.43-15.84C52.26-15.30 51.99-14.72 51.82-14.21ZM54.03-13.80L53.89-13.46C53.89-13.50 53.92-13.57 53.92-13.63ZM46.68-9.32C46.55-9.21 46.44-9.08 46.41-9.08C46.48-9.08 46.58-9.21 46.68-9.32ZM47.63-9.38C47.70-9.35 47.77-9.32 47.84-9.25ZM54.37-10.00C54.37-10.03 54.40-10.06 54.43-10.10C54.40-10.03 54.37-10.00 54.37-10.00ZM54.43-10.10L54.47-10.17C54.47-10.13 54.43-10.10 54.43-10.10ZM67.52-8.36C67.46-8.81 66.98-8.67 66.74-8.50C66.44-8.30 64.74-6.05 64.87-5.88C64.97-5.88 65.04-5.88 65.11-5.95C64.63-5.37 63.75-4.73 63.10-4.22C62.73-3.91 61.81-3.06 61.27-3.33C60.11-3.91 62.46-7.99 62.36-8.02C62.25-8.06 61.40-6.15 61.23-5.71C61.64-6.90 62.19-8.09 62.83-9.15C62.80-9.04 62.70-8.87 62.76-8.87C62.83-8.84 63.34-9.55 63.24-9.62C63.21-9.62 63.14-9.62 63.10-9.59C63.21-9.69 63.38-9.72 63.38-9.93C63.38-10.27 62.59-10.61 62.32-10.71C61.68-10.98 61.03-11.05 60.52-10.71C59.84-10.30 59.70-9.49 59.43-8.77C59.36-8.57 58.72-6.15 58.85-6.12C58.92-6.15 58.92-6.19 58.96-6.26L58.85-5.64C58.82-5.64 58.89-5.81 58.82-5.81C58.55-5.81 58.62-4.59 58.65-4.42C58.79-3.81 59.26-3.37 59.64-2.86C59.84-2.55 60.04-2.24 60.35-2.04C60.76-1.73 60.49-2.04 60.76-1.90L60.69-1.90C60.66-1.70 61.95-1.36 62.22-1.39C63.41-1.67 64.26-3.13 64.94-4.05C65.59-4.86 66.13-5.68 66.71-6.53C67.05-6.97 67.66-7.72 67.52-8.36ZM61.57-12.65C61.64-12.55 61.54-12.41 61.78-12.27C62.02-12.17 62.15-12.31 62.36-12.38C62.76-12.55 63.07-12.99 63.38-13.26C63.48-13.33 63.27-13.29 63.27-13.29C63.72-13.70 63.34-13.23 63.75-13.46C64.16-13.74 64.23-14.18 64.57-14.55C64.16-14.38 63.85-14.14 63.58-13.80C63.24-13.36 63.00-13.16 62.63-12.92C63.04-13.23 63.24-13.53 63.58-14.08C63.68-14.18 63.78-14.25 63.92-14.31C63.82-14.42 63.82-14.52 63.95-14.62C64.06-14.79 64.26-14.86 64.36-15.03C64.53-15.27 64.50-15.57 64.70-15.81C64.87-15.95 65.11-16.05 65.25-16.18C65.55-16.46 65.89-16.97 65.76-17.41C65.62-17.82 65.28-18.33 64.91-18.56C64.46-18.80 63.85-18.90 63.38-18.70C63.27-18.67 62.87-18.56 63.00-18.43C63.04-18.36 63.07-18.36 63.14-18.36C62.83-18.12 62.32-17.71 63.04-17.44C62.97-17.37 63.04-17.07 63.04-17.03C63.00-16.80 62.53-15.54 62.22-14.93L62.63-15.54C62.39-15.03 62.12-14.55 61.81-14.14C62.02-14.59 61.61-14.08 61.61-13.97C61.23-14.14 61.34-13.09 61.37-12.99C61.37-12.95 61.57-12.65 61.57-12.65ZM60.93-4.56L60.93-4.52L60.86-4.32L60.93-4.59C60.96-4.62 60.96-4.62 60.93-4.56ZM62.05-14.65C62.05-14.65 62.12-14.72 62.19-14.86ZM61.71-14.01C61.71-13.97 61.71-13.97 61.68-13.94C61.68-13.94 61.68-13.97 61.64-13.97C61.68-13.97 61.68-13.97 61.71-14.01ZM80.68-8.47C80.68-8.47 80.72-8.43 80.68-8.50C80.51-8.74 80.27-8.57 80.04-8.50C79.05-8.30 78.03-8.06 77.01-7.89C77.38-9.11 77.76-10.40 77.89-11.66C77.96-12.14 78.00-12.65 77.89-13.12C77.83-13.43 77.72-13.74 77.55-14.01C77.55-14.01 77.15-14.52 77.25-14.25L77.21-14.28L77.08-14.55L77.21-14.42C77.25-14.62 76.67-14.99 76.67-14.99C75.82-15.84 74.66-16.49 73.51-15.84C72.79-15.44 72.22-14.76 71.74-14.08C71.57-13.84 71.40-13.57 71.26-13.29C71.13-13.02 70.92-12.14 70.72-12.00C70.55-11.87 70.04-11.83 69.80-11.70C69.46-11.56 69.16-11.39 68.88-11.19C68.24-10.78 67.73-10.20 67.25-9.62C66.44-8.53 66.03-7.31 65.45-6.22C64.36-4.15 65.55-1.43 67.56-0.44C68.20-0.14 68.95 0 69.63-0.07C70.35-0.17 71.03-0.54 71.57-0.95C72.08-1.33 73.20-2.01 73.41-2.58C73.41-2.62 73.34-2.58 73.24-2.48L74.22-3.64C74.26-3.60 73.98-3.26 73.98-3.26C74.22-3.16 75.45-4.96 75.58-5.10C75.82-5.51 76.06-5.95 76.33-6.36C76.57-6.66 76.50-6.63 76.84-6.77C76.81-6.73 77.25-6.87 77.32-6.87C77.69-6.94 81.67-7.21 80.68-8.47ZM68.92-1.60L68.88-1.60C66.06-1.19 69.33-7.17 69.39-7.51L69.19-7.21C69.70-8.23 70.18-9.04 70.41-9.32C70.79-7.62 72.62-6.97 74.12-6.77C73.13-4.79 71.30-2.04 68.92-1.60ZM75.62-11.02C75.38-10.06 75.17-8.81 74.66-7.96C74.49-7.62 74.60-7.72 74.26-7.65C74.05-7.58 73.61-7.65 73.41-7.68C73.03-7.72 72.59-7.79 72.32-8.02C71.84-8.43 71.91-9.08 71.98-9.66C72.05-10.23 72.22-10.78 72.42-11.32C72.52-11.53 73.17-12.61 73.07-12.82C73.03-12.92 72.66-12.31 72.62-12.27C72.83-12.65 73.03-12.85 73.20-13.09C73.17-13.09 73.20-13.12 73.24-13.19L73.24-13.16L73.27-13.23C73.27-13.23 73.27-13.26 73.30-13.26C73.81-13.94 75.07-15.47 75.75-14.42C76.26-13.53 75.79-11.87 75.62-11.02ZM73.27-13.23L73.30-13.26C73.30-13.23 73.27-13.23 73.27-13.23ZM102.48-11.97C106.76-13.84 111.01-18.87 110.40-23.77C110.23-25.40 109.04-27.37 107.13-27.06C106.11-26.89 105.13-25.81 104.41-25.13C103.50-24.21 102.61-23.22 101.80-22.20C100.10-20.13 98.53-17.88 97.10-15.61C96.46-14.52 95.85-13.40 95.27-12.27C94.93-11.66 94.62-11.05 94.35-10.40C94.11-9.89 93.64-9.21 93.57-8.64C93.67-9.25 94.32-10.23 94.62-10.85C95.03-11.70 95.47-12.55 95.91-13.40C96.87-15.06 97.89-16.69 98.97-18.26C96.08-14.01 93.64-9.32 92.17-4.35L92.31-5.64C92.31-5.75 92.48-7.38 92.45-7.34C92.38-7.28 92.34-7.21 92.31-7.14C92.48-8.23 92.92-9.45 93.23-10.54C93.60-11.90 93.87-13.26 94.25-14.62C94.66-16.05 95.17-17.41 95.74-18.77C95.91-19.07 97.51-22.54 97.68-22.64C97.44-22.54 96.05-19.65 95.71-18.94C96.53-20.84 97.48-22.68 98.70-24.34C98.60-24.17 98.46-23.94 98.50-23.94C98.60-23.90 99.48-25.06 99.42-25.09C99.35-25.09 99.28-25.06 99.25-25.02C99.45-25.26 99.65-25.33 99.65-25.74C99.62-26.28 99.11-27.03 98.60-27.23C97.48-27.64 96.73-26.18 96.12-25.70C95.13-24.89 94.69-23.77 94.08-22.64C93.94-22.34 92.31-18.73 92.41-18.70L92.17-17.95C92.14-17.99 92.28-18.19 92.21-18.22C91.87-18.29 91.02-15.27 90.95-15.03C90.85-14.35 90.68-13.74 90.47-13.06C90.37-12.72 90.24-12.34 90.17-11.97C90.13-11.93 90.03-11.05 90.17-11.39C90.17-11.29 90.13-11.22 90.13-11.15C90.10-11.19 90.10-11.22 90.10-11.25C90.00-11.22 89.90-10.17 89.86-10.03C89.66-9.49 89.45-8.98 89.32-8.40C88.98-7.00 88.91-5.54 88.84-4.11C88.81-2.92 88.54-1.29 89.05-0.17C89.49 0.92 90.88 1.63 91.83 0.61L91.94 0.82C92.17-0.54 92.45-1.87 92.85-3.20C93.67-5.78 94.79-8.16 95.85-10.64C96.19-11.46 96.83-12.10 97.31-12.89C98.09-14.21 98.87-15.50 99.72-16.80C101.18-19.07 102.85-21.35 104.79-23.26C105.16-23.63 105.88-24.51 106.49-24.34C107.41-24.11 106.96-22.03 106.52-21.01L106.49-20.91L106.45-20.88L106.45-20.84C106.18-20.09 105.81-19.38 105.43-18.67C105.43-18.70 105.71-19.31 105.71-19.31C105.54-19.35 104.45-17.48 104.28-17.24C103.60-16.32 102.88-15.44 102.07-14.65C101.32-13.91 100.50-13.26 99.65-12.65C99.14-12.34 98.43-12.17 97.99-11.83C97.00-11.05 99.48-9.45 100.37-9.69C101.12-9.89 101.66-10.34 102.51-10.23C102.92-10.17 103.29-10.03 103.60-9.72C103.63-9.72 104.04-9.25 104.14-9.08L104.14-9.18C104.31-8.81 104.38-8.43 104.41-8.06C104.38-8.23 104.24-8.47 104.21-8.70C104.21-8.33 104.35-7.68 104.41-7.65C104.62-7.45 104.21-6.09 104.01-5.64C103.60-4.76 102.99-3.94 102.34-3.20C100.95-1.63 99.25-0.37 97.44 0.71C95.54 1.87 93.47 2.86 91.29 3.50C90.37 3.81 89.42 3.94 88.43 4.11C88.03 4.18 87.65 4.15 87.99 4.56C88.33 5.03 89.79 5.17 90.34 5.24C91.36 5.44 92.38 5.37 93.43 5.17C95.13 4.83 96.90 4.22 98.46 3.50C102.20 1.84 105.91-0.99 107.20-5.00C107.58-6.15 107.81-7.51 107.58-8.70C107.07-11.12 104.75-12.17 102.48-11.97ZM103.97-3.47C103.73-2.82 103.16-2.14 102.65-1.70C102.17-1.29 101.66-1.09 101.25-0.78L102.41-2.01C103.26-2.99 103.90-3.91 104.48-5.10L104.65-5.51C104.58-4.93 104.21-4.01 103.97-3.47ZM108.19-17.95C108.53-18.53 109.04-19.28 109.38-20.03C109.04-18.90 108.63-17.99 107.78-17.03C107.47-16.73 107.20-16.39 106.90-16.05C107.37-16.66 107.81-17.27 108.19-17.95ZM90.30-7.41C90.10-6.94 90.00-6.19 90.03-5.68C89.96-6.43 90.07-7.45 90.27-8.16C90.37-8.47 90.61-8.84 90.78-9.18C90.78-9.01 90.78-8.81 90.75-8.60C90.68-8.16 90.47-7.79 90.30-7.41ZM95.10-17.44C95.10-17.51 95.13-17.58 95.17-17.65ZM101.63-21.83L101.39-21.59ZM95.64-18.80C95.64-18.84 95.68-18.90 95.71-18.94ZM129.54-8.13C129.44-9.21 128.38-8.16 128.04-7.85C127.47-7.38 126.85-6.97 126.28-6.49C124.61-5.24 123.05-3.91 121.48-2.58C122.13-4.42 123.08-6.26 124.10-7.92C124.30-8.26 124.47-8.57 124.41-8.98C124.24-9.89 123.01-10.27 122.20-10.13C121.48-10.00 121.41-9.66 121.28-9.18C121.01-8.33 120.02-7.58 119.44-6.94C119.20-6.66 117.61-4.73 117.57-4.73C117.67-4.73 117.74-4.79 117.81-4.83C117.06-4.05 115.91-3.23 114.99-2.52C114.61-2.21 113.53-1.12 112.95-1.33C111.32-1.84 114.68-8.36 114.58-8.40C114.48-8.43 113.39-5.75 113.15-5.13C113.70-6.80 114.41-8.43 115.16-10.00C115.12-9.86 115.02-9.59 115.09-9.59C115.19-9.55 115.70-10.68 115.60-10.71C115.57-10.71 115.53-10.68 115.50-10.68C115.60-10.81 115.77-10.88 115.84-11.08C115.94-11.53 115.43-12.00 115.06-12.14C114.24-12.48 113.29-12.00 112.91-11.22C112.81-11.08 112.71-10.85 112.64-10.78C112.54-10.57 112.37-10.51 112.23-10.30C111.86-9.66 111.66-8.91 111.38-8.23C111.28-7.92 110.09-4.52 110.26-4.49L110.33-4.56C110.26-4.32 110.23-4.05 110.19-3.81C110.13-3.84 110.23-4.05 110.16-4.05C109.82-4.08 109.68-1.90 109.72-1.67C109.79-0.99 110.23-0.14 110.87 0.20C111.18 0.37 111.59 0.44 111.96 0.37C112.10 0.37 112.74 0.10 112.51 0.10L112.71 0.03L112.64 0.10C112.68 0.14 113.90-0.41 114.10-0.48C115.09-0.88 115.94-1.67 116.65-2.41L118.90-4.66C119.41-5.17 119.85-5.95 120.39-6.36C120.09-5.41 119.78-4.45 119.51-3.50C119.14-2.38 118.93-0.99 118.39 0.03C117.95 0.85 116.82 1.60 116.18 2.24C115.26 3.09 114.34 3.94 113.49 4.83C112.30 6.09 111.25 7.51 110.19 8.91C109.11 10.37 107.61 12.44 108.97 14.21C109.89 15.47 111.59 16.25 113.12 15.84C114.51 15.50 115.06 14.35 115.74 13.26C117.91 9.66 119.10 5.47 120.36 1.50C120.56 0.92 120.70-0.10 121.04-0.58C121.38-1.05 122.06-1.46 122.47-1.84C123.49-2.75 124.54-3.64 125.60-4.49L128.55-6.83C129.00-7.17 129.61-7.48 129.54-8.13ZM114.92 9.52L114.92 9.55L114.78 9.83L114.78 9.86C114.75 9.86 114.75 9.89 114.75 9.89C114.75 9.93 114.72 10.00 114.72 10.00C114.38 10.78 113.97 11.56 113.53 12.31C113.15 12.92 112.64 13.91 111.93 14.14C110.57 14.62 110.47 12.38 110.67 11.63C111.18 9.79 112.54 8.19 113.70 6.73C114.89 5.20 116.14 3.81 117.57 2.48C116.76 4.83 115.94 7.21 114.92 9.52ZM116.89 9.04C117.03 8.64 117.27 8.19 117.50 7.79C117.30 8.40 117.13 9.01 116.76 9.62L116.45 10.17C116.59 9.79 116.72 9.38 116.89 9.04ZM118.05 5.34L117.44 6.83C117.50 6.53 117.57 6.19 117.71 5.98C117.84 5.68 118.12 5.13 118.05 4.76C118.08 4.93 118.12 5.17 118.05 5.34ZM116.96 8.23L117.10 8.02C117.06 8.09 117.03 8.16 116.96 8.23ZM155.38-18.73C154.77-19.65 153.37-20.37 152.52-19.31C152.29-19.04 152.25-18.60 152.01-18.36C151.81-18.12 151.54-17.92 151.37-17.54C151.13-17.10 150.93-16.66 150.65-16.25C149.53-14.59 148.41-12.85 147.25-11.19L145.62-8.87C145.49-8.70 144.16-6.77 144.19-6.77C144.26-6.73 144.40-6.90 144.53-7.04C143.85-6.22 143.07-5.41 142.29-4.59C142.05-4.32 140.59-2.58 140.08-2.89C139.74-3.09 139.98-4.25 140.01-4.56C140.18-5.88 140.49-7.21 140.83-8.50C141.54-11.32 142.63-14.08 143.99-16.66C144.64-17.88 145.35-19.07 146.17-20.20C146.54-20.71 146.91-21.22 147.36-21.69C147.73-22.07 148.38-22.47 148.75-22.92C148.48-22.64 147.93-22.34 147.70-22.10C147.19-21.62 146.74-21.11 146.34-20.57C145.52-19.48 144.77-18.36 144.13-17.17C145.15-19.11 146.37-21.05 148.00-22.51C148.58-23.05 149.26-23.53 150.01-23.80C150.55-24.00 150.96-24.07 151.30-23.94C151.50-23.80 151.71-23.53 151.84-23.12C151.78-23.19 151.67-23.29 151.57-23.46C151.67-23.26 151.74-23.02 151.81-22.81C151.84-22.68 152.15-21.59 152.22-21.62C152.29-21.66 152.18-22.00 152.18-22.03C152.39-21.25 152.66-20.94 153.51-21.49C153.88-21.73 154.46-22.20 154.46-22.68C154.50-23.26 153.75-23.80 153.37-24.14C152.42-24.96 151.13-25.84 149.87-26.11C149.19-26.25 148.44-26.38 147.76-26.15C146.44-25.67 145.38-24.55 144.53-23.49C143.55-22.27 142.60-21.01 141.81-19.65L140.79-17.65C140.56-17.17 139.94-16.46 139.91-15.91C139.91-15.91 140.05-16.08 140.15-16.22C139.88-15.67 139.60-15.13 139.40-14.59C139.37-14.62 139.54-15.06 139.54-15.06C139.30-15.10 138.38-12.78 138.28-12.58C137.80-11.46 137.39-10.30 137.19-9.08C136.95-7.89 136.61-6.73 136.58-5.51C136.58-4.93 136.61-4.32 136.78-3.74C136.82-3.50 136.88-3.23 137.02-2.99C137.05-2.99 137.33-2.41 137.22-2.75L137.63-2.04C137.63-2.04 137.33-2.35 137.29-2.45C137.33-2.28 137.73-1.87 137.73-1.87C138.28-1.02 139.30 0.17 140.42 0.10C141.64 0.03 142.80-1.84 143.45-2.69C145.45-5.51 147.32-8.50 149.12-11.42L148.85-10.47C148.82-10.51 148.92-10.74 148.85-10.74C148.51-10.78 147.90-7.89 147.90-7.65C147.83-7.00 147.76-6.39 147.63-5.75C147.56-5.30 147.46-4.90 147.42-4.45C147.42-4.42 147.46-3.81 147.53-3.81C147.49-3.77 147.53-3.71 147.53-3.64C147.53-3.67 147.49-3.71 147.49-3.74C147.39-3.71 147.46-2.69 147.46-2.55C147.36-1.97 147.25-1.46 147.25-0.85C147.32 0.54 147.80 2.07 148.89 3.06C149.50 3.57 150.28 3.88 151.10 3.88C152.08 3.88 152.59 3.30 153.14 2.58C153.48 2.18 154.94-1.56 153.71-1.02C153.37-0.88 152.97-0.07 152.73 0.20C152.39 0.61 151.71 1.56 151.10 1.67C150.99 1.67 150.89 1.77 150.79 1.70C150.59 1.56 150.35 0.07 150.31 0.07C150.25 0.20 150.25 0.34 150.25 0.48C150.14-0.54 150.42-1.84 150.55-2.96C150.72-4.35 150.86-5.78 151.10-7.21C151.30-8.60 151.67-10.00 152.15-11.36C152.25-11.70 153.51-14.99 153.75-15.27C153.48-15.10 152.66-13.12 152.25-12.04C152.86-13.74 153.58-15.37 154.60-16.86C154.53-16.73 154.43-16.59 154.46-16.59C154.60-16.52 155.35-17.71 155.28-17.75C155.21-17.75 155.18-17.71 155.14-17.68C155.38-17.99 155.72-18.19 155.38-18.73ZM140.18-7.55C140.52-9.93 141.24-12.38 142.19-14.59C143.00-16.52 143.99-18.33 145.04-20.13C145.62-21.15 146.44-22.37 147.49-23.22C146.57-22.44 145.83-21.39 145.28-20.43C144.16-18.60 143.28-16.66 142.49-14.65C141.68-12.51 141.00-10.23 140.45-8.02C140.18-6.90 139.94-5.78 139.88-4.66L139.81-4.05L139.81-4.18C139.88-5.30 140.05-6.46 140.18-7.55ZM147.80-2.35C147.80-3.06 147.83-3.67 148.00-4.35C148.07-4.56 148.14-4.79 148.24-5.03C148.17-4.52 148.21-3.94 148.17-3.40C148.10-2.75 147.97-2.14 147.90-1.50C147.87-1.12 147.83-0.75 147.87-0.37C147.80-1.02 147.76-1.67 147.80-2.35ZM142.73-14.28L142.66-14.18L142.73-14.35ZM148.07-23.66L147.66-23.36C147.80-23.46 147.93-23.60 148.07-23.66ZM151.33-23.87L151.47-23.60C151.40-23.70 151.33-23.80 151.33-23.87ZM151.57-23.49L151.47-23.60C151.50-23.53 151.57-23.49 151.57-23.49ZM152.15-11.76L152.25-12.04ZM168.40-8.09C168.23-8.91 167.76-8.36 167.55-8.06C167.08-7.48 166.33-6.94 165.75-6.39C164.97-5.71 164.19-5.00 163.37-4.35C162.96-4.01 162.45-3.54 161.94-3.37C161.87-3.33 161.64-3.30 161.64-3.26L161.60-3.30C161.60-3.30 161.57-3.84 161.60-3.88C161.64-4.32 161.77-4.76 161.91-5.17C161.94-5.24 162.32-6.39 162.25-6.39L162.08-6.19C162.28-6.60 162.55-7.00 162.79-7.45C162.25-6.94 161.87-6.36 161.60-5.64C161.47-5.30 161.09-4.69 161.02-4.18C161.09-4.93 161.60-5.92 161.84-6.36C162.18-7.07 162.55-7.89 163.00-8.57C163.81-9.79 165.58-10.91 165.04-12.61C164.56-14.21 163.30-14.25 162.32-13.33C161.84-12.89 157.79-7.72 157.90-7.65C157.90-7.65 158.24-8.06 158.68-8.64L156.67-5.71C156.64-5.71 157.01-6.29 156.98-6.32C156.94-6.36 156.71-6.12 156.67-5.98C156.74-6.70 156.98-7.41 157.05-8.13C157.08-8.40 157.05-8.60 157.11-8.87C157.25-9.32 157.39-9.79 157.59-10.17C157.73-10.44 158.00-10.68 158.07-10.95C158.20-11.39 158.17-11.56 158.47-11.93C158.75-12.27 159.15-12.61 159.39-12.92C159.97-13.77 158.98-14.35 158.44-14.45C158.00-14.52 157.56-14.55 157.15-14.31C156.71-14.04 156.81-13.80 156.71-13.43C156.60-12.95 156.26-12.41 156.09-11.97C155.82-11.25 155.58-10.54 155.35-9.83C155.07-9.11 154.80-8.43 154.60-7.72C154.43-7.14 154.46-6.60 154.39-6.05C154.33-5.44 154.22-5.03 154.53-4.49C154.87-3.91 155.79-3.03 156.40-3.77L156.54-3.50C157.11-4.76 158.00-5.88 158.71-7.11C159.02-7.65 159.56-8.02 160.00-8.60C160.62-9.42 161.16-10.23 161.84-11.02C161.74-10.85 161.30-10.06 161.33-10.03C161.40-10.06 161.43-10.13 161.50-10.20L161.02-9.25C160.99-9.28 161.16-9.52 161.09-9.52C160.85-9.59 160.14-7.68 160.07-7.51C159.83-6.77 159.80-6.09 159.73-5.30C159.70-4.93 159.63-4.56 159.63-4.18C159.63-3.81 159.66-3.43 159.83-3.06C159.94-2.86 160.07-2.58 160.24-2.41C160.28-2.41 160.65-2.07 160.48-2.35L160.68-2.14L160.58-2.21C160.55-2.04 161.81-1.36 162.01-1.29C162.96-0.99 163.98-2.07 164.59-2.72C165.41-3.60 166.09-4.62 166.84-5.58C167.25-6.12 168.54-7.28 168.40-8.09ZM183.26-8.16C183.12-9.15 182.14-8.16 181.83-7.89C181.25-7.45 180.64-7.07 180.06-6.63C179.28-6.09 178.53-5.47 177.79-4.86C177.48-4.62 175.61-2.89 175.44-2.99C175.98-4.69 176.94-6.39 177.85-7.99C178.70-9.42 176.97-10.64 175.58-10.03C175.17-9.86 174.73-9.11 174.45-8.74C173.81-7.82 173.20-6.83 172.55-5.92L171.63-4.52C171.53-4.39 170.88-3.43 170.99-3.43C171.02-3.43 171.05-3.47 171.09-3.50C170.41-2.58 169.42-1.43 168.54-0.78C167.31 0.17 168.03-2.69 168.20-3.16C168.71-4.69 169.56-6.15 170.48-7.48C170.61-7.68 172.48-10.06 173.09-10.64C172.48-10.13 170.65-7.85 170.34-7.48C171.43-9.04 173.16-11.53 175.20-11.87L174.76-11.70C175.17-11.76 176.09-11.73 176.09-11.73L175.98-11.83C176.15-11.73 176.26-11.59 176.46-11.59C177.31-11.63 177.11-12.99 176.73-13.40C176.22-14.08 175.00-14.35 174.18-14.14C173.94-14.08 173.84-13.94 173.57-13.91C173.26-13.84 173.03-13.91 172.65-13.70C171.97-13.36 171.39-12.89 170.85-12.34C170.51-12.04 167.25-8.53 167.48-8.40C167.55-8.40 167.62-8.47 167.65-8.50L167.08-7.65C167.04-7.68 167.21-7.92 167.18-7.92C167.04-7.99 166.36-6.87 166.33-6.77C165.99-6.22 165.72-5.61 165.61-4.96C165.48-4.25 165.44-3.47 165.44-2.75C165.44-2.28 165.48-1.80 165.61-1.36C165.65-1.29 166.06-0.51 165.99-0.85L166.09-0.61C166.06-0.61 166.02-0.65 165.99-0.68C165.85-0.44 167.14 0.71 167.38 0.82C167.89 1.05 168.37 0.92 168.88 0.61C170-0.07 170.78-1.36 171.56-2.45C172.41-3.60 173.37-4.79 174.08-6.09L173.33-3.43C173.03-2.45 172.86-0.99 172.24-0.20C171.60 0.58 170.65 1.26 169.93 1.94C169.18 2.62 168.44 3.30 167.76 4.08C166.77 5.20 165.85 6.43 165.00 7.65C164.02 9.08 163.34 10.61 164.02 12.27C164.63 13.74 166.02 15.10 167.72 14.69C169.18 14.31 169.73 13.09 170.37 11.93C172.41 8.40 173.43 4.32 174.59 0.41C174.76-0.17 174.86-0.75 175.27-1.19C175.68-1.60 176.19-1.97 176.66-2.35C177.62-3.20 178.60-3.98 179.62-4.79L182.38-6.90C182.82-7.24 183.40-7.51 183.26-8.16ZM171.22 3.40C171.22 3.37 171.05 3.84 171.09 3.77C170.37 5.85 169.69 7.92 168.74 9.89C168.27 10.88 166.02 14.96 165.21 11.97C164.66 10.06 166.50 7.89 167.55 6.49C168.84 4.83 170.17 3.33 171.70 1.90C171.56 2.41 171.39 2.92 171.22 3.40ZM171.09 5.78C170.88 6.53 170.65 7.28 170.34 7.99C170.03 8.57 169.63 9.08 169.32 9.62C169.93 8.30 170.58 7.04 171.09 5.68ZM169.39-6.80C169.18-6.43 168.88-6.09 168.61-5.71C168.88-6.32 169.15-6.87 169.66-7.41C169.76-7.51 169.93-7.68 170.03-7.85ZM169.35-5.92L169.05-5.47C169.25-5.85 169.49-6.22 169.76-6.60ZM193.80-8.40C193.80-8.36 193.80-8.36 193.77-8.40L193.77-8.43C193.22-9.35 192.51-8.09 192.20-7.65C191.62-6.87 191.08-6.12 190.47-5.41C189.96-4.79 189.41-4.18 189.01-3.54C189.01-3.47 188.94-3.30 188.94-3.30C188.80-3.09 188.60-2.92 188.43-2.72C188.12-2.41 187.82-2.07 187.48-1.77C186.97-1.29 184.11 1.39 183.74-0.34C183.53-1.19 183.80-2.24 183.97-3.06C184.08-3.50 184.18-3.91 184.25-4.35C184.31-4.69 184.21-5.03 184.38-5.37C184.48-5.58 184.52-5.54 184.76-5.61L185.33-5.81C185.71-5.95 186.08-6.09 186.42-6.29C186.93-6.60 187.41-6.97 187.85-7.34C188.90-8.23 190.03-9.28 190.47-10.61C190.71-11.36 190.74-12.17 190.26-12.82C189.82-13.40 189.07-13.70 188.39-13.84C186.56-14.18 185.16-13.12 184.11-11.73C182.82-10.13 181.90-8.16 181.46-6.15C181.22-5.17 181.08-4.18 180.91-3.16C180.74-2.14 180.64-1.19 181.19-0.24C181.15-0.58 181.08-0.88 181.08-1.19C181.08-1.36 181.15-1.53 181.15-1.67C181.15-1.73 181.08-1.94 181.08-2.04C181.08-2.35 181.15-2.58 181.22-2.89C181.25-3.20 181.22-3.50 181.25-3.81C181.29-4.15 181.42-4.42 181.56-4.73C181.66-5.00 181.70-5.24 181.80-5.51C181.90-5.75 181.97-6.02 182.07-6.29C182.10-6.46 182.27-6.66 182.38-6.87C182.27-6.56 182.07-6.29 182.00-6.02C181.90-5.61 181.97-5.17 181.93-4.76C181.87-4.32 181.73-3.88 181.66-3.40C181.59-2.96 181.39-2.55 181.32-2.11C181.25-1.70 181.12-1.39 181.15-0.99C181.15-0.75 181.19-0.51 181.22-0.31C181.25-0.03 181.42 0.14 181.59 0.34C182.17 1.02 182.95 1.56 183.84 1.80C184.45 1.97 184.99 1.94 185.57 1.63C186.39 1.19 187.10 0.51 187.71-0.14C188.29-0.78 188.73-1.50 189.24-2.18C189.72-2.79 190.30-3.37 190.77-3.98L192.61-6.36L193.66-7.75C193.83-7.96 193.94-8.13 193.80-8.40ZM185.37-8.02C185.40-8.09 185.40-8.13 185.40-8.13C185.91-9.21 186.29-10.37 187-11.42L187.61-12.24C187.75-12.41 187.99-12.72 188.22-12.78C188.73-12.89 188.87-12.00 188.84-11.66L188.70-10.95C188.67-10.74 188.73-10.61 188.70-10.44C188.63-10.23 188.46-10.13 188.36-9.96L187.78-9.21C187-8.30 186.01-7.51 184.93-6.94C185.10-7.31 185.20-7.68 185.37-8.02ZM204.95-8.67C204.48-8.16 204.17-7.31 203.80-6.70C203.22-5.71 202.64-4.76 202.03-3.81C200.87-1.97 199.72-0.10 198.32 1.56C197.74 2.28 196.52 4.01 195.36 3.88C194.51 3.74 194.51 2.28 194.51 1.63C194.51 1.09 194.55 0.54 194.62 0.03C194.65-0.27 194.92-1.29 194.75-1.56L194.48-0.54C194.51-0.95 194.58-1.39 194.68-1.80C194.65-1.87 194.96-2.82 195.02-3.13C195.19-3.81 195.36-4.49 195.57-5.17C195.74-5.85 195.91-6.49 196.11-7.14C196.28-7.75 196.52-8.06 196.89-8.53C198.42-10.44 199.82-12.51 201.11-14.59C201.59-15.37 201.89-16.05 202.47-16.69C203.32-17.58 203.90-18.90 204.44-19.99C205.36-21.76 206.58-24.21 206.38-26.28L206.38-26.45L206.35-26.49C206.14-27.81 204.92-29.38 203.42-28.90C202.64-28.66 202.06-27.85 201.59-27.27L200.80-26.21C200.63-26.01 200.40-25.50 200.23-25.23L200.26-25.26L199.17-23.39L199.44-23.97C199.27-24.00 198.53-22.54 198.42-22.37C198.05-21.73 197.71-21.08 197.40-20.43C196.72-19.07 196.04-17.68 195.60-16.22C195.13-14.76 194.58-13.33 194.07-11.87C193.80-11.08 193.53-10.27 193.29-9.49C193.09-8.84 192.61-7.79 192.71-7.11L192.81-7.11C192.71-6.87 192.64-6.63 192.58-6.39C192.61-6.60 192.61-6.83 192.64-6.90C192.47-6.66 192.51-5.85 192.47-5.78C192.03-3.94 191.52-2.11 191.39-0.20C191.28 1.60 191.28 3.98 192.71 5.30C194.31 6.77 196.15 5.78 197.47 4.52C199.04 2.99 200.36 1.19 201.59-0.58C202.71-2.21 203.59-3.94 204.61-5.58C205.02-6.26 205.46-6.94 205.67-7.68C205.80-8.23 205.73-9.49 204.95-8.67ZM200.70-20.84C201.38-22.47 202.06-24.14 203.01-25.67C203.25-26.04 204.78-28.08 204.71-26.28L204.71-26.25C204.65-24.34 203.42-22.34 202.61-20.71L201.18-18.05C200.70-17.24 199.89-16.22 199.61-15.33C199.82-15.88 200.43-16.66 200.74-17.17C201.25-18.02 201.69-18.87 202.16-19.72C202.95-21.22 203.80-22.78 204.37-24.41C202.84-19.86 199.99-15.61 197.47-11.56C198.46-14.55 199.44-17.82 200.70-20.84ZM199.61-23.22C199.95-23.87 200.57-24.41 200.91-25.02C200.19-23.60 199.31-22.30 198.56-20.94C198.56-20.98 198.56-21.05 198.59-21.08C198.90-21.83 199.24-22.51 199.61-23.22ZM193.19-5.64C193.15-5.58 193.15-5.54 193.15-5.54C192.75-4.59 192.71-3.30 192.51-2.28C192.47-2.04 192.41-1.84 192.41-1.60L192.41-1.70L192.30-0.61C192.37-1.84 192.51-3.09 192.75-4.28L192.75-4.25C192.85-5.03 193.02-5.75 193.15-5.75C193.22-5.78 193.22-5.68 193.19-5.64Z"></path></g></g></g></g></svg>