<svg version="1.1" xmlns="http://www.w3.org/2000/svg" xmlns:xlink="http://www.w3.org/1999/xlink" xmlns:i="http://ns.adobe.com/AdobeIllustrator/10.0/" xmlns:sketch="http://www.bohemiancoding.com/sketch/ns" viewBox="0 0 640 480" xml:space="preserve" preserveAspectRatio="xMidYMid meet" class="">{{text2Gradient}}<defs><linearGradient id="iconGradient643216873"><stop offset="0" stop-color="#006838"></stop><stop offset="1" stop-color="#96cf24"></stop></linearGradient></defs><rect x="0px" y="0px" width="100%" height="100%" fill="#222a35"></rect><g class="logo-container-box logoContainerBox" transform="scale(0.99) translate(3.232338491112273,2.424234794847905)"><g class="containerBody" transform="scale(1.12) translate(-34.285714285714334,-10.009283883231035)"><g class="sampleIconBox" transform="scale(1) translate(0,0)"><g class="sampleIcons_1" transform="scale(0.2952755905511811) translate(827.7333276112875,270.2880000000001)" fill="url(#iconGradient643216873)"><g><g><path d="M192.2,184.2c0,35.2,28.6,63.8,63.8,63.8s63.8-28.6,63.8-63.8c0-35.2-28.6-63.8-63.8-63.8S192.2,149,192.2,184.2z    M291.6,184.2c0,19.6-16,35.6-35.6,35.6s-35.6-16-35.6-35.6s16-35.6,35.6-35.6S291.6,164.6,291.6,184.2z"></path><path d="M466.7,2h-44c-4.1,0-8,1.8-10.6,4.8L381,42.4c-14.5,16.6-34.7,26.8-56.4,29.2C315.6,39.5,305.8,10,256,10   c-49.9,0-59.6,29.6-68.7,61.8C165.7,69.4,145.5,59,131,42.4L100,6.8C97.3,3.8,93.4,2,89.3,2h-44c-7.8,0-14.1,6.3-14.1,14.1   s6.3,14.1,14.1,14.1h37.6L109.8,61c18,20.6,42.7,33.8,69.3,38c-5.8,16.8-14,35.2-28.4,54.3c-42.8,43-60.6,86.7-52.8,129.8   c9.8,54,59.3,95.3,104.2,117v56c0,29.7,24.2,53.9,53.9,53.9c0,0,0,0,0,0c0,0,0,0,0,0c29.7,0,53.9-24.2,53.9-53.9v-56   c44.9-21.7,94.4-63,104.2-117c7.8-43.1-10-86.8-52.8-129.8c-14.4-19.1-22.7-37.5-28.4-54.3c26.7-4.1,51.3-17.3,69.3-38l26.9-30.8   h37.6c7.8,0,14.1-6.3,14.1-14.1S474.5,2,466.7,2z M281.7,323.3v132.8c0,14.2-11.5,25.7-25.7,25.7c-14.2,0-25.7-11.5-25.7-25.7   V323.3c0-14.2,11.5-25.7,25.7-25.7C270.2,297.6,281.7,309.1,281.7,323.3z M213.7,82.1c9-31.9,12.3-43.9,42.3-43.9   s33.3,12,42.3,43.9c7.2,32.7,21.7,62.7,42.4,90.4c36.4,36.3,51.8,71.8,45.7,105.5c-7.1,39-41.6,70.7-76.4,90.2v-45   c0-29.7-24.2-53.9-53.9-53.9c0,0,0,0,0,0c0,0,0,0,0,0c-29.7,0-53.9,24.2-53.9,53.9v45c-34.8-19.6-69.4-51.2-76.4-90.2   c-6.1-33.7,9.3-69.2,45.7-105.5C189.8,150.5,203.7,120.1,213.7,82.1z"></path></g></g></g></g><g class="sampleTexts_1" transform="scale(1) translate(0.0000152587890625,-10.409997558593744)"><g class="logo--name svgLogoName_1 logoNameBox" transform="scale(1) translate(121.26999473571777,325.74000015258787)" fill="#ffffff"><path d="M28.37 0L5.99 0L5.99-59.29L26.45-59.29L26.45-59.29Q32.27-59.29 36.39-58.18L36.39-58.18L36.39-58.18Q40.51-57.07 43.15-55.02L43.15-55.02L43.15-55.02Q45.80-52.97 47.03-50.06L47.03-50.06L47.03-50.06Q48.26-47.15 48.26-43.50L48.26-43.50L48.26-43.50Q48.26-41.41 47.64-39.50L47.64-39.50L47.64-39.50Q47.03-37.60 45.74-35.94L45.74-35.94L45.74-35.94Q44.44-34.28 42.46-32.92L42.46-32.92L42.46-32.92Q40.47-31.57 37.72-30.63L37.72-30.63L37.72-30.63Q49.94-27.88 49.94-17.43L49.94-17.43L49.94-17.43Q49.94-13.65 48.50-10.46L48.50-10.46L48.50-10.46Q47.07-7.26 44.32-4.94L44.32-4.94L44.32-4.94Q41.57-2.62 37.56-1.31L37.56-1.31L37.56-1.31Q33.54 0 28.37 0L28.37 0ZM28.17-25.99L17.02-25.99L17.02-8.61L28.21-8.61L28.21-8.61Q31.28-8.61 33.35-9.35L33.35-9.35L33.35-9.35Q35.42-10.09 36.67-11.32L36.67-11.32L36.67-11.32Q37.93-12.55 38.48-14.19L38.48-14.19L38.48-14.19Q39.03-15.83 39.03-17.67L39.03-17.67L39.03-17.67Q39.03-19.60 38.42-21.14L38.42-21.14L38.42-21.14Q37.80-22.67 36.49-23.76L36.49-23.76L36.49-23.76Q35.18-24.85 33.13-25.42L33.13-25.42L33.13-25.42Q31.08-25.99 28.17-25.99L28.17-25.99ZM17.02-50.76L17.02-33.62L25.83-33.62L25.83-33.62Q31.45-33.62 34.36-35.67L34.36-35.67L34.36-35.67Q37.27-37.72 37.27-42.19L37.27-42.19L37.27-42.19Q37.27-46.82 34.65-48.79L34.65-48.79L34.65-48.79Q32.02-50.76 26.45-50.76L26.45-50.76L17.02-50.76ZM59.49-42.07L69.62-42.07L69.62 0L59.49 0L59.49-42.07ZM71.14-54.33L71.14-54.33L71.14-54.33Q71.14-53.01 70.60-51.87L70.60-51.87L70.60-51.87Q70.07-50.72 69.19-49.86L69.19-49.86L69.19-49.86Q68.31-49.00 67.12-48.48L67.12-48.48L67.12-48.48Q65.93-47.97 64.58-47.97L64.58-47.97L64.58-47.97Q63.26-47.97 62.09-48.48L62.09-48.48L62.09-48.48Q60.93-49.00 60.07-49.86L60.07-49.86L60.07-49.86Q59.20-50.72 58.69-51.87L58.69-51.87L58.69-51.87Q58.18-53.01 58.18-54.33L58.18-54.33L58.18-54.33Q58.18-55.68 58.69-56.87L58.69-56.87L58.69-56.87Q59.20-58.06 60.07-58.92L60.07-58.92L60.07-58.92Q60.93-59.78 62.09-60.29L62.09-60.29L62.09-60.29Q63.26-60.80 64.58-60.80L64.58-60.80L64.58-60.80Q65.93-60.80 67.12-60.29L67.12-60.29L67.12-60.29Q68.31-59.78 69.19-58.92L69.19-58.92L69.19-58.92Q70.07-58.06 70.60-56.87L70.60-56.87L70.60-56.87Q71.14-55.68 71.14-54.33ZM81.18-60.93L91.31-60.93L91.31-26.04L93.19-26.04L93.19-26.04Q94.22-26.04 94.79-26.32L94.79-26.32L94.79-26.32Q95.37-26.61 96.02-27.39L96.02-27.39L106.48-40.30L106.48-40.30Q107.17-41.12 107.95-41.59L107.95-41.59L107.95-41.59Q108.73-42.07 110.00-42.07L110.00-42.07L119.27-42.07L106.19-26.45L106.19-26.45Q105.49-25.58 104.76-24.87L104.76-24.87L104.76-24.87Q104.02-24.15 103.16-23.62L103.16-23.62L103.16-23.62Q104.02-23.00 104.67-22.18L104.67-22.18L104.67-22.18Q105.33-21.36 105.99-20.42L105.99-20.42L120.01 0L110.86 0L110.86 0Q109.68 0 108.86-0.41L108.86-0.41L108.86-0.41Q108.04-0.82 107.38-1.80L107.38-1.80L96.68-17.75L96.68-17.75Q96.06-18.70 95.45-18.98L95.45-18.98L95.45-18.98Q94.83-19.27 93.60-19.27L93.60-19.27L91.31-19.27L91.31 0L81.18 0L81.18-60.93ZM141.20-42.72L141.20-42.72L141.20-42.72Q145.18-42.72 148.52-41.45L148.52-41.45L148.52-41.45Q151.86-40.18 154.28-37.74L154.28-37.74L154.28-37.74Q156.70-35.30 158.06-31.75L158.06-31.75L158.06-31.75Q159.41-28.21 159.41-23.66L159.41-23.66L159.41-23.66Q159.41-22.51 159.31-21.75L159.31-21.75L159.31-21.75Q159.20-20.99 158.94-20.56L158.94-20.56L158.94-20.56Q158.67-20.13 158.22-19.95L158.22-19.95L158.22-19.95Q157.77-19.76 157.07-19.76L157.07-19.76L131.08-19.76L131.08-19.76Q131.53-13.28 134.56-10.25L134.56-10.25L134.56-10.25Q137.60-7.22 142.60-7.22L142.60-7.22L142.60-7.22Q145.06-7.22 146.84-7.79L146.84-7.79L146.84-7.79Q148.63-8.36 149.96-9.06L149.96-9.06L149.96-9.06Q151.29-9.76 152.29-10.33L152.29-10.33L152.29-10.33Q153.30-10.91 154.24-10.91L154.24-10.91L154.24-10.91Q154.86-10.91 155.31-10.66L155.31-10.66L155.31-10.66Q155.76-10.41 156.09-9.96L156.09-9.96L159.04-6.27L159.04-6.27Q157.36-4.31 155.27-2.97L155.27-2.97L155.27-2.97Q153.18-1.64 150.90-0.84L150.90-0.84L150.90-0.84Q148.63-0.04 146.27 0.29L146.27 0.29L146.27 0.29Q143.91 0.61 141.70 0.61L141.70 0.61L141.70 0.61Q137.31 0.61 133.54-0.84L133.54-0.84L133.54-0.84Q129.77-2.30 126.98-5.15L126.98-5.15L126.98-5.15Q124.19-8.00 122.59-12.20L122.59-12.20L122.59-12.20Q120.99-16.40 120.99-21.94L120.99-21.94L120.99-21.94Q120.99-26.24 122.39-30.03L122.39-30.03L122.39-30.03Q123.78-33.83 126.38-36.63L126.38-36.63L126.38-36.63Q128.99-39.44 132.74-41.08L132.74-41.08L132.74-41.08Q136.49-42.72 141.20-42.72ZM141.41-35.47L141.41-35.47L141.41-35.47Q136.98-35.47 134.48-32.96L134.48-32.96L134.48-32.96Q131.98-30.46 131.28-25.87L131.28-25.87L150.31-25.87L150.31-25.87Q150.31-27.84 149.77-29.58L149.77-29.58L149.77-29.58Q149.24-31.32 148.13-32.64L148.13-32.64L148.13-32.64Q147.03-33.95 145.35-34.71L145.35-34.71L145.35-34.71Q143.66-35.47 141.41-35.47ZM225.09-29.64L225.09-29.64L225.09-29.64Q225.09-23.12 222.92-17.57L222.92-17.57L222.92-17.57Q220.74-12.01 216.81-7.95L216.81-7.95L216.81-7.95Q212.87-3.90 207.34-1.62L207.34-1.62L207.34-1.62Q201.80 0.66 195.08 0.66L195.08 0.66L195.08 0.66Q188.35 0.66 182.80-1.62L182.80-1.62L182.80-1.62Q177.24-3.90 173.29-7.95L173.29-7.95L173.29-7.95Q169.33-12.01 167.16-17.57L167.16-17.57L167.16-17.57Q164.98-23.12 164.98-29.64L164.98-29.64L164.98-29.64Q164.98-36.16 167.16-41.72L167.16-41.72L167.16-41.72Q169.33-47.27 173.29-51.33L173.29-51.33L173.29-51.33Q177.24-55.39 182.80-57.67L182.80-57.67L182.80-57.67Q188.35-59.94 195.08-59.94L195.08-59.94L195.08-59.94Q201.80-59.94 207.34-57.65L207.34-57.65L207.34-57.65Q212.87-55.35 216.81-51.31L216.81-51.31L216.81-51.31Q220.74-47.27 222.92-41.72L222.92-41.72L222.92-41.72Q225.09-36.16 225.09-29.64ZM213.77-29.64L213.77-29.64L213.77-29.64Q213.77-34.52 212.48-38.40L212.48-38.40L212.48-38.40Q211.19-42.27 208.77-44.98L208.77-44.98L208.77-44.98Q206.35-47.68 202.89-49.12L202.89-49.12L202.89-49.12Q199.42-50.55 195.08-50.55L195.08-50.55L195.08-50.55Q190.73-50.55 187.25-49.12L187.25-49.12L187.25-49.12Q183.76-47.68 181.32-44.98L181.32-44.98L181.32-44.98Q178.88-42.27 177.57-38.40L177.57-38.40L177.57-38.40Q176.26-34.52 176.26-29.64L176.26-29.64L176.26-29.64Q176.26-24.76 177.57-20.89L177.57-20.89L177.57-20.89Q178.88-17.02 181.32-14.33L181.32-14.33L181.32-14.33Q183.76-11.64 187.25-10.21L187.25-10.21L187.25-10.21Q190.73-8.77 195.08-8.77L195.08-8.77L195.08-8.77Q199.42-8.77 202.89-10.21L202.89-10.21L202.89-10.21Q206.35-11.64 208.77-14.33L208.77-14.33L208.77-14.33Q211.19-17.02 212.48-20.89L212.48-20.89L212.48-20.89Q213.77-24.76 213.77-29.64ZM249.90-23.17L245.18-23.17L245.18 0L234.15 0L234.15-59.29L252.23-59.29L252.23-59.29Q258.30-59.29 262.63-58.04L262.63-58.04L262.63-58.04Q266.95-56.79 269.72-54.53L269.72-54.53L269.72-54.53Q272.49-52.28 273.78-49.14L273.78-49.14L273.78-49.14Q275.07-46.00 275.07-42.23L275.07-42.23L275.07-42.23Q275.07-39.24 274.19-36.57L274.19-36.57L274.19-36.57Q273.31-33.91 271.65-31.73L271.65-31.73L271.65-31.73Q269.99-29.56 267.55-27.92L267.55-27.92L267.55-27.92Q265.11-26.28 261.99-25.30L261.99-25.30L261.99-25.30Q264.08-24.11 265.60-21.89L265.60-21.89L280.44 0L270.52 0L270.52 0Q269.08 0 268.08-0.57L268.08-0.57L268.08-0.57Q267.07-1.15 266.38-2.21L266.38-2.21L253.91-21.20L253.91-21.20Q253.22-22.26 252.38-22.71L252.38-22.71L252.38-22.71Q251.54-23.17 249.90-23.17L249.90-23.17ZM245.18-50.76L245.18-31.08L252.07-31.08L252.07-31.08Q255.18-31.08 257.50-31.86L257.50-31.86L257.50-31.86Q259.82-32.64 261.31-34.01L261.31-34.01L261.31-34.01Q262.81-35.38 263.55-37.27L263.55-37.27L263.55-37.27Q264.29-39.16 264.29-41.41L264.29-41.41L264.29-41.41Q264.29-45.92 261.31-48.34L261.31-48.34L261.31-48.34Q258.34-50.76 252.23-50.76L252.23-50.76L245.18-50.76ZM287.57-42.07L297.70-42.07L297.70 0L287.57 0L287.57-42.07ZM299.22-54.33L299.22-54.33L299.22-54.33Q299.22-53.01 298.69-51.87L298.69-51.87L298.69-51.87Q298.15-50.72 297.27-49.86L297.27-49.86L297.27-49.86Q296.39-49.00 295.20-48.48L295.20-48.48L295.20-48.48Q294.01-47.97 292.66-47.97L292.66-47.97L292.66-47.97Q291.35-47.97 290.18-48.48L290.18-48.48L290.18-48.48Q289.01-49.00 288.15-49.86L288.15-49.86L288.15-49.86Q287.29-50.72 286.77-51.87L286.77-51.87L286.77-51.87Q286.26-53.01 286.26-54.33L286.26-54.33L286.26-54.33Q286.26-55.68 286.77-56.87L286.77-56.87L286.77-56.87Q287.29-58.06 288.15-58.92L288.15-58.92L288.15-58.92Q289.01-59.78 290.18-60.29L290.18-60.29L290.18-60.29Q291.35-60.80 292.66-60.80L292.66-60.80L292.66-60.80Q294.01-60.80 295.20-60.29L295.20-60.29L295.20-60.29Q296.39-59.78 297.27-58.92L297.27-58.92L297.27-58.92Q298.15-58.06 298.69-56.87L298.69-56.87L298.69-56.87Q299.22-55.68 299.22-54.33ZM344.93 0L338.74 0L338.74 0Q336.77 0 336.16-1.84L336.16-1.84L335.34-5.90L335.34-5.90Q334.03-4.43 332.59-3.24L332.59-3.24L332.59-3.24Q331.16-2.05 329.50-1.19L329.50-1.19L329.50-1.19Q327.84-0.33 325.93 0.14L325.93 0.14L325.93 0.14Q324.02 0.61 321.81 0.61L321.81 0.61L321.81 0.61Q318.37 0.61 315.50-0.82L315.50-0.82L315.50-0.82Q312.63-2.25 310.55-4.98L310.55-4.98L310.55-4.98Q308.48-7.71 307.36-11.73L307.36-11.73L307.36-11.73Q306.23-15.74 306.23-20.91L306.23-20.91L306.23-20.91Q306.23-25.58 307.50-29.60L307.50-29.60L307.50-29.60Q308.77-33.62 311.15-36.57L311.15-36.57L311.15-36.57Q313.53-39.52 316.85-41.18L316.85-41.18L316.85-41.18Q320.17-42.84 324.31-42.84L324.31-42.84L324.31-42.84Q327.84-42.84 330.34-41.72L330.34-41.72L330.34-41.72Q332.84-40.59 334.81-38.70L334.81-38.70L334.81-60.93L344.93-60.93L344.93 0ZM325.25-7.42L325.25-7.42L325.25-7.42Q328.41-7.42 330.62-8.73L330.62-8.73L330.62-8.73Q332.84-10.04 334.81-12.46L334.81-12.46L334.81-31.32L334.81-31.32Q333.08-33.41 331.05-34.28L331.05-34.28L331.05-34.28Q329.03-35.14 326.69-35.14L326.69-35.14L326.69-35.14Q324.39-35.14 322.53-34.28L322.53-34.28L322.53-34.28Q320.66-33.41 319.37-31.67L319.37-31.67L319.37-31.67Q318.08-29.93 317.38-27.24L317.38-27.24L317.38-27.24Q316.68-24.56 316.68-20.91L316.68-20.91L316.68-20.91Q316.68-17.22 317.28-14.66L317.28-14.66L317.28-14.66Q317.87-12.10 318.98-10.48L318.98-10.48L318.98-10.48Q320.09-8.86 321.69-8.14L321.69-8.14L321.69-8.14Q323.29-7.42 325.25-7.42ZM373.26-42.72L373.26-42.72L373.26-42.72Q377.24-42.72 380.58-41.45L380.58-41.45L380.58-41.45Q383.92-40.18 386.34-37.74L386.34-37.74L386.34-37.74Q388.76-35.30 390.12-31.75L390.12-31.75L390.12-31.75Q391.47-28.21 391.47-23.66L391.47-23.66L391.47-23.66Q391.47-22.51 391.37-21.75L391.37-21.75L391.37-21.75Q391.26-20.99 391.00-20.56L391.00-20.56L391.00-20.56Q390.73-20.13 390.28-19.95L390.28-19.95L390.28-19.95Q389.83-19.76 389.13-19.76L389.13-19.76L363.14-19.76L363.14-19.76Q363.59-13.28 366.62-10.25L366.62-10.25L366.62-10.25Q369.66-7.22 374.66-7.22L374.66-7.22L374.66-7.22Q377.12-7.22 378.90-7.79L378.90-7.79L378.90-7.79Q380.69-8.36 382.02-9.06L382.02-9.06L382.02-9.06Q383.35-9.76 384.35-10.33L384.35-10.33L384.35-10.33Q385.36-10.91 386.30-10.91L386.30-10.91L386.30-10.91Q386.92-10.91 387.37-10.66L387.37-10.66L387.37-10.66Q387.82-10.41 388.15-9.96L388.15-9.96L391.10-6.27L391.10-6.27Q389.42-4.31 387.33-2.97L387.33-2.97L387.33-2.97Q385.24-1.64 382.96-0.84L382.96-0.84L382.96-0.84Q380.69-0.04 378.33 0.29L378.33 0.29L378.33 0.29Q375.97 0.61 373.76 0.61L373.76 0.61L373.76 0.61Q369.37 0.61 365.60-0.84L365.60-0.84L365.60-0.84Q361.83-2.30 359.04-5.15L359.04-5.15L359.04-5.15Q356.25-8.00 354.65-12.20L354.65-12.20L354.65-12.20Q353.05-16.40 353.05-21.94L353.05-21.94L353.05-21.94Q353.05-26.24 354.44-30.03L354.44-30.03L354.44-30.03Q355.84-33.83 358.44-36.63L358.44-36.63L358.44-36.63Q361.05-39.44 364.80-41.08L364.80-41.08L364.80-41.08Q368.55-42.72 373.26-42.72ZM373.47-35.47L373.47-35.47L373.47-35.47Q369.04-35.47 366.54-32.96L366.54-32.96L366.54-32.96Q364.04-30.46 363.34-25.87L363.34-25.87L382.37-25.87L382.37-25.87Q382.37-27.84 381.83-29.58L381.83-29.58L381.83-29.58Q381.30-31.32 380.19-32.64L380.19-32.64L380.19-32.64Q379.09-33.95 377.41-34.71L377.41-34.71L377.41-34.71Q375.72-35.47 373.47-35.47Z"></path></g><g id="" class="logo--name svgSloganText_1 sloganBox" transform="scale(1) translate(151.5096001625061,370.35)" fill="#ffffff"><path d="M0.69-22.37L0.69-23.10L12.57-23.10L12.57-22.37L9.08-22.37L9.08-0.73L10.26-0.73L10.26-0.73Q13.07-0.73 14.73-2.44L14.73-2.44L14.73-2.44Q16.40-4.16 18.12-7.72L18.12-7.72L18.81-7.72L18.18 0L0.69 0L0.69-0.73L2.64-0.73L2.64-22.37L0.69-22.37ZM37.68 0.33L37.68 0.33Q33.42 0.33 31.29-1.86L31.29-1.86L31.29-1.86Q29.16-4.06 29.16-7.97L29.16-7.97L29.16-7.97Q29.16-11.88 31.56-13.96L31.56-13.96L31.56-13.96Q33.95-16.04 37.64-16.04L37.64-16.04L37.64-16.04Q45.14-16.04 44.84-8.51L44.84-8.51L35.53-8.51L35.53-7.23L35.53-7.23Q35.53-3.99 36.36-2.34L36.36-2.34L36.36-2.34Q37.18-0.69 39.23-0.69L39.23-0.69L39.23-0.69Q43.06-0.69 44.24-4.79L44.24-4.79L44.84-4.69L44.84-4.69Q44.21-2.31 42.58-0.99L42.58-0.99L42.58-0.99Q40.94 0.33 37.68 0.33L37.68 0.33ZM35.56-10.79L35.56-9.17L38.96-9.17L38.96-10.79L38.96-10.79Q38.96-13.46 38.65-14.44L38.65-14.44L38.65-14.44Q38.34-15.41 37.40-15.41L37.40-15.41L37.40-15.41Q36.46-15.41 36.01-14.37L36.01-14.37L36.01-14.37Q35.56-13.33 35.56-10.79L35.56-10.79ZM56.68-4.72L56.68-4.72L56.68-15.11L54.86-15.11L54.86-15.71L56.68-15.71L56.68-19.96L62.81-21.48L62.81-15.71L67.10-15.71L67.10-15.11L62.81-15.11L62.81-3.99L62.81-3.99Q62.81-2.44 63.13-1.72L63.13-1.72L63.13-1.72Q63.44-0.99 64.43-0.99L64.43-0.99L64.43-0.99Q65.42-0.99 66.16-1.98L66.16-1.98L66.16-1.98Q66.91-2.97 67.14-4.69L67.14-4.69L67.70-4.62L67.70-4.62Q67.43-2.34 66.25-1.01L66.25-1.01L66.25-1.01Q65.06 0.33 62.32 0.33L62.32 0.33L62.32 0.33Q59.58 0.33 58.13-0.76L58.13-0.76L58.13-0.76Q56.68-1.85 56.68-4.72ZM78.18 0.33L77.79 0.33L77.79-5.58L78.18-5.58L78.18-5.58Q79.04-2.71 80.49-1.55L80.49-1.55L80.49-1.55Q81.94-0.40 84.12-0.40L84.12-0.40L84.12-0.40Q87.49-0.40 87.49-2.54L87.49-2.54L87.49-2.54Q87.49-3.47 86.66-3.93L86.66-3.93L86.66-3.93Q85.38-4.65 83.36-5.05L83.36-5.05L83.36-5.05Q81.12-5.64 79.60-6.63L79.60-6.63L79.60-6.63Q77.79-7.82 77.79-10.40L77.79-10.40L77.79-10.40Q77.79-12.97 79.37-14.50L79.37-14.50L79.37-14.50Q80.95-16.04 83.59-16.04L83.59-16.04L83.59-16.04Q85.21-16.04 86.93-15.28L86.93-15.28L86.93-15.28Q87.55-15.02 87.88-15.02L87.88-15.02L87.88-15.02Q88.21-15.02 88.45-15.25L88.45-15.25L88.45-15.25Q88.68-15.48 89.01-16.10L89.01-16.10L89.37-16.10L89.37-11.05L88.97-11.05L88.97-11.05Q87.29-15.35 83.76-15.35L83.76-15.35L83.76-15.35Q82.21-15.35 81.45-14.80L81.45-14.80L81.45-14.80Q80.69-14.26 80.69-13.43L80.69-13.43L80.69-13.43Q80.69-12.94 80.92-12.66L80.92-12.66L80.92-12.66Q81.15-12.38 81.28-12.24L81.28-12.24L81.28-12.24Q81.42-12.11 81.71-11.96L81.71-11.96L81.71-11.96Q82.01-11.81 82.21-11.73L82.21-11.73L82.21-11.73Q82.41-11.65 82.82-11.52L82.82-11.52L82.82-11.52Q83.23-11.38 83.43-11.35L83.43-11.35L83.43-11.35Q85.67-10.79 86.66-10.38L86.66-10.38L86.66-10.38Q87.65-9.97 88.54-9.37L88.54-9.37L88.54-9.37Q90.36-8.12 90.36-5.33L90.36-5.33L90.36-5.33Q90.36-2.54 88.71-1.11L88.71-1.11L88.71-1.11Q87.06 0.33 84.19 0.33L84.19 0.33L84.19 0.33Q82.14 0.33 80.23-0.63L80.23-0.63L80.23-0.63Q79.83-0.89 79.60-0.89L79.60-0.89L79.60-0.89Q78.88-0.89 78.18 0.33L78.18 0.33ZM128.52-17.42L128.52-17.42L129.45-17.98L129.45-17.98Q129.64-19.01 128.66-19.01L128.66-19.01L128.66-19.01Q127.24-19.01 127.24-16.83L127.24-16.83L127.24-16.83Q127.24-15.97 127.47-14.85L127.47-14.85L127.47-14.85Q129.97-13.17 129.97-10.54L129.97-10.54L129.97-10.54Q129.97-7.92 128.16-6.47L128.16-6.47L128.16-6.47Q126.34-5.02 123.24-5.02L123.24-5.02L123.24-5.02Q121.96-5.02 120.57-5.28L120.57-5.28L120.57-5.28Q119.12-4.36 119.12-3.89L119.12-3.89L119.12-3.89Q119.12-3.43 121.23-3.43L121.23-3.43L124.60-3.43L124.60-3.43Q132.09-3.43 132.09 1.95L132.09 1.95L132.09 1.95Q132.09 4.85 129.83 6.55L129.83 6.55L129.83 6.55Q127.57 8.25 122.78 8.25L122.78 8.25L122.78 8.25Q114.63 8.25 114.63 4.72L114.63 4.72L114.63 4.72Q114.63 2.81 117.17 2.08L117.17 2.08L119.15 2.97L119.15 2.97Q118.89 3.93 118.89 4.79L118.89 4.79L118.89 4.79Q118.89 7.62 123.11 7.62L123.11 7.62L123.11 7.62Q125.68 7.62 127.07 6.67L127.07 6.67L127.07 6.67Q128.46 5.71 128.46 4.29L128.46 4.29L128.46 4.29Q128.46 2.87 127.62 2.39L127.62 2.39L127.62 2.39Q126.77 1.91 124.27 1.91L124.27 1.91L121.06 1.91L121.06 1.91Q118.39 1.91 117.24 1.02L117.24 1.02L117.24 1.02Q116.08 0.13 116.08-1.17L116.08-1.17L116.08-1.17Q116.08-2.48 116.91-3.35L116.91-3.35L116.91-3.35Q117.73-4.22 119.84-5.51L119.84-5.51L119.84-5.51Q116.02-6.60 116.02-10.53L116.02-10.53L116.02-10.53Q116.02-13.00 117.80-14.52L117.80-14.52L117.80-14.52Q119.58-16.04 123.14-16.04L123.14-16.04L123.14-16.04Q125.29-16.04 126.81-15.21L126.81-15.21L126.81-15.21Q126.61-16.10 126.61-16.83L126.61-16.83L126.61-16.83Q126.61-18.68 127.60-19.50L127.60-19.50L127.60-19.50Q128.59-20.33 129.81-20.33L129.81-20.33L129.81-20.33Q131.03-20.33 131.77-19.68L131.77-19.68L131.77-19.68Q132.52-19.04 132.52-17.92L132.52-17.92L132.52-17.92Q132.52-16.80 131.92-16.25L131.92-16.25L131.92-16.25Q131.33-15.71 130.49-15.71L130.49-15.71L130.49-15.71Q129.64-15.71 129.10-16.15L129.10-16.15L129.10-16.15Q128.56-16.60 128.52-17.42ZM121.53-11.25L121.53-11.25L121.53-9.47L121.53-9.47Q121.53-7.26 121.91-6.47L121.91-6.47L121.91-6.47Q122.29-5.68 123.06-5.68L123.06-5.68L123.06-5.68Q123.84-5.68 124.18-6.45L124.18-6.45L124.18-6.45Q124.53-7.23 124.53-9.64L124.53-9.64L124.53-11.25L124.53-11.25Q124.53-13.83 124.20-14.64L124.20-14.64L124.20-14.64Q123.87-15.44 123.09-15.44L123.09-15.44L123.09-15.44Q122.32-15.44 121.92-14.60L121.92-14.60L121.92-14.60Q121.53-13.76 121.53-11.25ZM152.17-6.50L152.17-6.50L152.17-9.31L152.17-9.31Q152.17-12.51 151.83-13.98L151.83-13.98L151.83-13.98Q151.48-15.44 150.23-15.44L150.23-15.44L150.23-15.44Q149.50-15.44 149.06-15.03L149.06-15.03L149.06-15.03Q148.61-14.62 148.41-13.66L148.41-13.66L148.41-13.66Q148.12-12.18 148.12-9.14L148.12-9.14L148.12-6.57L148.12-6.57Q148.12-2.97 148.33-2.24L148.33-2.24L148.33-2.24Q148.54-1.52 148.78-1.06L148.78-1.06L148.78-1.06Q149.14-0.26 150.19-0.26L150.19-0.26L150.19-0.26Q151.48-0.26 151.88-1.75L151.88-1.75L151.88-1.75Q152.17-2.81 152.17-6.50ZM150.13 0.33L150.13 0.33Q146.00 0.33 143.89-1.78L143.89-1.78L143.89-1.78Q141.78-3.89 141.78-7.84L141.78-7.84L141.78-7.84Q141.78-11.78 144.04-13.91L144.04-13.91L144.04-13.91Q146.30-16.04 150.39-16.04L150.39-16.04L150.39-16.04Q154.48-16.04 156.50-14.07L156.50-14.07L156.50-14.07Q158.51-12.11 158.51-8.09L158.51-8.09L158.51-8.09Q158.51 0.33 150.13 0.33L150.13 0.33ZM185.02-4.72L185.02-4.72L185.02-15.11L183.21-15.11L183.21-15.71L185.02-15.71L185.02-19.96L191.16-21.48L191.16-15.71L195.45-15.71L195.45-15.11L191.16-15.11L191.16-3.99L191.16-3.99Q191.16-2.44 191.48-1.72L191.48-1.72L191.48-1.72Q191.79-0.99 192.78-0.99L192.78-0.99L192.78-0.99Q193.77-0.99 194.51-1.98L194.51-1.98L194.51-1.98Q195.25-2.97 195.49-4.69L195.49-4.69L196.05-4.62L196.05-4.62Q195.78-2.34 194.59-1.01L194.59-1.01L194.59-1.01Q193.41 0.33 190.67 0.33L190.67 0.33L190.67 0.33Q187.93 0.33 186.48-0.76L186.48-0.76L186.48-0.76Q185.02-1.85 185.02-4.72ZM216.04-6.50L216.04-6.50L216.04-9.31L216.04-9.31Q216.04-12.51 215.69-13.98L215.69-13.98L215.69-13.98Q215.34-15.44 214.09-15.44L214.09-15.44L214.09-15.44Q213.36-15.44 212.92-15.03L212.92-15.03L212.92-15.03Q212.47-14.62 212.27-13.66L212.27-13.66L212.27-13.66Q211.98-12.18 211.98-9.14L211.98-9.14L211.98-6.57L211.98-6.57Q211.98-2.97 212.19-2.24L212.19-2.24L212.19-2.24Q212.41-1.52 212.64-1.06L212.64-1.06L212.64-1.06Q213-0.26 214.06-0.26L214.06-0.26L214.06-0.26Q215.34-0.26 215.74-1.75L215.74-1.75L215.74-1.75Q216.04-2.81 216.04-6.50ZM213.99 0.33L213.99 0.33Q209.87 0.33 207.75-1.78L207.75-1.78L207.75-1.78Q205.64-3.89 205.64-7.84L205.64-7.84L205.64-7.84Q205.64-11.78 207.90-13.91L207.90-13.91L207.90-13.91Q210.16-16.04 214.25-16.04L214.25-16.04L214.25-16.04Q218.35-16.04 220.36-14.07L220.36-14.07L220.36-14.07Q222.37-12.11 222.37-8.09L222.37-8.09L222.37-8.09Q222.37 0.33 213.99 0.33L213.99 0.33ZM258.26-14.78L258.26-14.78L258.26-14.78Q257.04-14.78 256.11-13.20L256.11-13.20L256.11-13.20Q255.19-11.62 255.19-9.44L255.19-9.44L255.19-0.59L257.53-0.59L257.53 0L247.24 0L247.24-0.59L249.05-0.59L249.05-15.11L247.24-15.11L247.24-15.71L255.19-15.71L255.19-12.54L255.19-12.54Q255.62-14.22 256.84-15.13L256.84-15.13L256.84-15.13Q258.06-16.04 259.61-16.04L259.61-16.04L259.61-16.04Q261.16-16.04 262.14-15.16L262.14-15.16L262.14-15.16Q263.11-14.29 263.11-12.69L263.11-12.69L263.11-12.69Q263.11-11.09 262.38-10.23L262.38-10.23L262.38-10.23Q261.66-9.37 260.16-9.37L260.16-9.37L260.16-9.37Q258.65-9.37 257.94-10.36L257.94-10.36L257.94-10.36Q257.24-11.35 257.76-13.10L257.76-13.10L258.95-13.10L258.95-13.10Q259.78-14.78 258.26-14.78ZM277.42-17.98L277.42-17.98L277.42-17.98Q275.67-17.98 274.93-18.88L274.93-18.88L274.93-18.88Q274.19-19.77 274.19-21.09L274.19-21.09L274.19-21.09Q274.19-22.41 275.00-23.27L275.00-23.27L275.00-23.27Q275.81-24.12 277.45-24.12L277.45-24.12L277.45-24.12Q279.10-24.12 279.96-23.35L279.96-23.35L279.96-23.35Q280.82-22.57 280.82-21.14L280.82-21.14L280.82-21.14Q280.82-19.70 280.00-18.84L280.00-18.84L280.00-18.84Q279.17-17.98 277.42-17.98ZM272.44-15.11L272.44-15.71L280.52-15.71L280.52-0.59L282.37-0.59L282.37 0L272.57 0L272.57-0.59L274.39-0.59L274.39-15.11L272.44-15.11ZM298.73-6.83L298.73-6.83Q298.73-3.37 299.09-2.23L299.09-2.23L299.09-2.23Q299.46-1.09 300.43-1.09L300.43-1.09L300.43-1.09Q301.40-1.09 302.11-1.95L302.11-1.95L302.11-1.95Q302.82-2.81 302.82-4.49L302.82-4.49L302.82-11.68L302.82-11.68Q302.82-13.10 302.26-14.09L302.26-14.09L302.26-14.09Q301.70-15.08 300.61-15.08L300.61-15.08L300.61-15.08Q299.52-15.08 299.13-13.63L299.13-13.63L299.13-13.63Q298.73-12.18 298.73-8.55L298.73-8.55L298.73-6.83ZM310.58 0L303.25 0L302.89-2.31L302.89-2.31Q301.77 0.33 298.33 0.33L298.33 0.33L298.33 0.33Q295.50 0.33 293.93-1.72L293.93-1.72L293.93-1.72Q292.36-3.76 292.36-7.82L292.36-7.82L292.36-7.82Q292.36-16.04 298.90-16.04L298.90-16.04L298.90-16.04Q301.80-16.04 302.72-14.42L302.72-14.42L302.72-24.16L300.71-24.16L300.71-24.75L308.96-24.75L308.96-0.59L310.58-0.59L310.58 0ZM329.12 0.33L329.12 0.33Q324.86 0.33 322.73-1.86L322.73-1.86L322.73-1.86Q320.60-4.06 320.60-7.97L320.60-7.97L320.60-7.97Q320.60-11.88 322.99-13.96L322.99-13.96L322.99-13.96Q325.39-16.04 329.08-16.04L329.08-16.04L329.08-16.04Q336.57-16.04 336.28-8.51L336.28-8.51L326.97-8.51L326.97-7.23L326.97-7.23Q326.97-3.99 327.80-2.34L327.80-2.34L327.80-2.34Q328.62-0.69 330.67-0.69L330.67-0.69L330.67-0.69Q334.49-0.69 335.68-4.79L335.68-4.79L336.28-4.69L336.28-4.69Q335.65-2.31 334.02-0.99L334.02-0.99L334.02-0.99Q332.38 0.33 329.12 0.33L329.12 0.33ZM327.00-10.79L327.00-9.17L330.40-9.17L330.40-10.79L330.40-10.79Q330.40-13.46 330.09-14.44L330.09-14.44L330.09-14.44Q329.77-15.41 328.83-15.41L328.83-15.41L328.83-15.41Q327.89-15.41 327.45-14.37L327.45-14.37L327.45-14.37Q327.00-13.33 327.00-10.79L327.00-10.79Z"></path></g></g></g></g></svg>