<svg version="1.1" xmlns="http://www.w3.org/2000/svg" xmlns:xlink="http://www.w3.org/1999/xlink" xmlns:i="http://ns.adobe.com/AdobeIllustrator/10.0/" xmlns:sketch="http://www.bohemiancoding.com/sketch/ns" viewBox="0 0 640 480" xml:space="preserve" preserveAspectRatio="xMidYMid meet" class="">{{text2Gradient}}<defs><linearGradient id="iconGradient1868044219"><stop offset="0" stop-color="#006838"></stop><stop offset="1" stop-color="#96cf24"></stop></linearGradient></defs><rect x="0px" y="0px" width="100%" height="100%" fill="#051c1c"></rect><g class="logo-container-box logoContainerBox" transform="scale(0.99) translate(3.232338491112273,2.424253868334233)"><g class="containerBody" transform="scale(1.1032841248661012) translate(-29.9568526476927,-6.267648259573235)"><g class="sampleIconBox" transform="scale(1) translate(0,0)"><g class="sampleIcons_1" transform="scale(2.277247488688893) translate(90.10401648566835,5.088183228628978)" fill="url(#iconGradient1868044219)"><g><g><g><path d="M66.677,83.168c-10.74,5.7-24.37,3.026-32.06-6.9l-7.868,6.086c11.055,14.293,30.951,17.795,46.096,8.777l2.947,3.993    l3.462-15.363l-14.795-0.273L66.677,83.168z"></path><path d="M65.796,27.868l-7.589,1.995l2.83,4.25c0.379-0.735,0.797-1.456,1.269-2.158C63.312,30.457,64.499,29.106,65.796,27.868z"></path><path d="M78.73,52.316c1.925,5.468,2.013,11.607-0.201,17.437l9.312,3.535c3.736-9.84,2.758-20.317-1.779-28.98    C83.707,48.253,81.178,50.777,78.73,52.316z"></path><path d="M19.394,62.346l-4.141,0.861l11.146,10.138l7.359-13.358l-4.441,0.668c0.008-4.352,1.178-8.505,3.193-12.166    c-2.806-0.785-5.825-2.25-8.805-4.729C20.664,49.316,19.082,55.707,19.394,62.346z"></path><path d="M74.351,31.896c-1.787,1.796-3.941,4.25-6.071,7.347c-3.728,5.429-7.363,12.877-8.845,22.378    c0.781,3.048,1.401,6.284,1.836,9.718l3.438,0.097c-0.072-3.691,0.201-15.966,5.737-30.64    C71.537,37.905,72.813,34.928,74.351,31.896z"></path><path d="M70.59,26.608c-2.557,1.792-4.854,3.938-6.574,6.5c-0.648,0.966-1.187,1.975-1.638,3.011    c-1.421,3.275-1.868,6.892-1.313,10.82c0.843-1.848,2.102-4.348,3.817-7.062c1.98-3.142,4.609-6.548,7.862-9.602    c1.252-1.175,2.593-2.292,4.042-3.317c0.395-0.306,0.696-0.523,0.7-0.525c0-0.002,0.505-0.414,1.069-0.012    c0.833,0.594,0.453,1.292,0.392,1.393c-0.636,1.071-1.207,2.134-1.778,3.196c-0.262,0.5-0.548,1.061-0.85,1.661    c-1.232,2.474-2.737,5.767-4.159,9.614c-1.139,3.07-2.222,6.478-3.06,10.093c0.483,0.095,1.147,0.183,1.944,0.183    c1.65,0,4.106-0.437,6.804-2.234c2.279-1.521,4.723-4.046,7.014-8.17c2.834-5.103,5.418-12.625,7.105-23.779    C88.364,19.02,78.305,21.199,70.59,26.608z"></path><path d="M47.011,26.213C40.273,12.679,22.785,6.62,8.866,3.87c2.522,17.816,12.212,51.438,37.582,42.002    c-0.99-2.199-1.618-4.332-3.903-5.22c-1.048-0.409-2.097-0.815-3.146-1.224c-3.114-1.212-6.23-2.426-9.344-3.638    c-0.765-0.296-2.281-0.596-1.957-1.757c0.39-1.389,2.949-0.422,3.851-0.262c2.864,0.505,5.729,1.013,8.593,1.518    c-3.615-5.278-8.023-10.013-13.162-13.835c-0.666-0.5-0.481-1.576,0.322-1.814c0.807-0.239,2.169,0.506,2.737,0.894    c2.925,2.007,5.777,4.259,8.42,6.625c-0.05-1.63-1.532-7.957,1.326-5.543c0.855,1.924,1.292,4.05,1.882,6.067    c0.699,2.385,1.164,3.738,2.782,5.62c1.552,1.803,3.003,3.689,4.362,5.644C49.678,34.479,49.026,30.26,47.011,26.213    C46.576,25.34,48.521,29.245,47.011,26.213z"></path><path d="M59.475,73.353c-1.702-15.886-8.541-31.392-19.384-42.236c1.854,2.403,3.366,4.838,4.798,7.251    c-1.886-0.405-3.772-0.811-5.658-1.216c2.379,0.926,5.933,1.496,7.099,3.786c10.322,20.269,8.756,34.174,8.471,40.083    c0,0,4.461-0.097,5.146,0C59.906,78.461,59.736,75.9,59.475,73.353C59.438,73.015,59.729,75.815,59.475,73.353z"></path></g></g></g></g></g><g class="sampleTexts_1" transform="scale(1) translate(0,46.50000610351563)"><g class="logo--name svgLogoName_1 logoNameBox" transform="scale(1) translate(179.4499969482422,283.4)" fill="#ffffff"><path d="M53.90-37.80L53.90-37.80Q62.90-42.20 67.80-47.70L67.80-47.70L67.80-47.70Q72.70-53.20 74.25-57.70L74.25-57.70L74.25-57.70Q75.80-62.20 75.50-63.90L75.50-63.90L75.50-63.90Q73-75.50 59.70-75.50L59.70-75.50L59.70-75.50Q52-75.50 40.80-71.30L40.80-71.30L40.80-71.30Q21.40-63.80 9.35-53.30L9.35-53.30L9.35-53.30Q-2.70-42.80-7.85-33.80L-7.85-33.80L-7.85-33.80Q-13-24.80-13-21.30L-13-21.30L-13-21.30Q-13-20-11.20-16.75L-11.20-16.75L-11.20-16.75Q-9.40-13.50-6.90-10.70L-6.90-10.70L-6.90-10.70Q-4.40-7.90-2.30-7.50L-2.30-7.50L-2.30-7.50Q-1.70-7.40-0.30-7.40L-0.30-7.40L-0.30-7.40Q5.10-7.40 12.35-9.80L12.35-9.80L12.35-9.80Q19.60-12.20 30.80-16.70L30.80-16.70L30.80-16.70Q33.10-17.70 38.50-19.80L38.50-19.80L38.50-19.80Q41.30-20.90 44-20.90L44-20.90L44-20.90Q45.40-20.90 46.25-20.65L46.25-20.65L46.25-20.65Q47.10-20.40 47.30-20.30L47.30-20.30L47.30-20.30Q46.20-19.70 42.40-17.40L42.40-17.40L42.40-17.40Q38.60-15.10 33.35-11.35L33.35-11.35L33.35-11.35Q28.10-7.60 23.70-3.60L23.70-3.60L23.70-3.60Q17.20 2.30 13.15 7.80L13.15 7.80L13.15 7.80Q9.10 13.30 8.90 15.50L8.90 15.50L8.90 15.50Q8.70 16.80 9.90 19.35L9.90 19.35L9.90 19.35Q11.10 21.90 13.30 24.10L13.30 24.10L13.30 24.10Q15.50 26.30 18.30 26.70L18.30 26.70L18.30 26.70Q19.70 26.90 20.50 26.90L20.50 26.90L20.50 26.90Q26.30 26.90 33.40 22.65L33.40 22.65L33.40 22.65Q40.50 18.40 45.10 12.70L45.10 12.70L45.10 12.70Q57.40-1.60 57.40-14.30L57.40-14.30L57.40-14.30Q57.40-17.70 56.60-20.30L56.60-20.30L56.60-20.30Q57.90-21 60.70-23.10L60.70-23.10L60.70-23.10Q63.50-25.20 65.60-27.20L65.60-27.20L65.60-27.20Q66.40-27.90 67.05-29.75L67.05-29.75L67.05-29.75Q67.70-31.60 67.90-32.20L67.90-32.20L54.10-24.30L54.10-24.30Q51.10-26.90 45.90-26.90L45.90-26.90L45.90-26.90Q44-26.90 41.50-26.60L41.50-26.60L41.50-26.60Q36.70-26.10 31.30-24.65L31.30-24.65L31.30-24.65Q25.90-23.20 17.80-20.60L17.80-20.60L17.80-20.60Q10.20-18.20 5.75-17L5.75-17L5.75-17Q1.30-15.80-1.80-15.80L-1.80-15.80L-1.80-15.80Q-5-15.80-6.30-17.40L-6.30-17.40L-6.30-17.40Q-7.10-18.30-3.45-24.65L-3.45-24.65L-3.45-24.65Q0.20-31 7.60-38.90L7.60-38.90L7.60-38.90Q15-46.80 25.40-53.20L25.40-53.20L25.40-53.20Q39.30-61.80 49-65.25L49-65.25L49-65.25Q58.70-68.70 64.70-68.70L64.70-68.70L64.70-68.70Q66.90-68.70 68.45-68.30L68.45-68.30L68.45-68.30Q70-67.90 70.70-67.40L70.70-67.40L70.70-67.40Q71.40-66.90 71.30-66.60L71.30-66.60L71.30-66.60Q70.10-60 63.90-54.95L63.90-54.95L63.90-54.95Q57.70-49.90 49-45.10L49-45.10L49-45.10Q47.20-44.20 45.95-43.40L45.95-43.40L45.95-43.40Q44.70-42.60 44.70-42.30L44.70-42.30L44.70-42.30Q44.60-41.50 45.45-40.20L45.45-40.20L45.45-40.20Q46.30-38.90 47.85-38L47.85-38L47.85-38Q49.40-37.10 51.10-37.10L51.10-37.10L51.10-37.10Q52.60-37.10 53.90-37.80L53.90-37.80ZM26.60 3L26.60 3Q31.10-1.40 36.45-5.50L36.45-5.50L36.45-5.50Q41.80-9.60 45.70-12.20L45.70-12.20L45.70-12.20Q49.60-14.80 50.70-15.50L50.70-15.50L50.70-15.50Q50.70-13.40 50.45-11.30L50.45-11.30L50.45-11.30Q50.20-9.20 48.25-4.85L48.25-4.85L48.25-4.85Q46.30-0.50 41.90 4.10L41.90 4.10L41.90 4.10Q34.20 11.90 28 14.75L28 14.75L28 14.75Q21.80 17.60 17.60 17.60L17.60 17.60L17.60 17.60Q16.60 17.60 15.95 17.50L15.95 17.50L15.95 17.50Q15.30 17.40 15.20 17.30L15.20 17.30L15.20 17.30Q15.60 16.70 17.10 14.55L17.10 14.55L17.10 14.55Q18.60 12.40 21.10 9.20L21.10 9.20L21.10 9.20Q23.60 6 26.60 3L26.60 3ZM87.30-6.50L87.30-6.50Q87-6.90 88.05-11.60L88.05-11.60L88.05-11.60Q89.10-16.30 91.05-22.05L91.05-22.05L91.05-22.05Q93-27.80 95.80-32.40L95.80-32.40L95.80-32.40Q97.20-34.90 98.40-36.75L98.40-36.75L98.40-36.75Q99.60-38.60 100-39.10L100-39.10L100-39.10Q99.80-39.30 98.95-39.80L98.95-39.80L98.95-39.80Q98.10-40.30 96.85-40.80L96.85-40.80L96.85-40.80Q95.60-41.30 94.40-41.30L94.40-41.30L94.40-41.30Q94-41.30 93.20-41.10L93.20-41.10L93.20-41.10Q92-40.80 91-39.65L91-39.65L91-39.65Q90-38.50 89.40-37.35L89.40-37.35L89.40-37.35Q88.80-36.20 88.70-35.90L88.70-35.90L88.70-35.90Q88.30-36.20 86.90-37.15L86.90-37.15L86.90-37.15Q85.50-38.10 83.35-39L83.35-39L83.35-39Q81.20-39.90 79.20-39.90L79.20-39.90L79.20-39.90Q77-39.90 75.30-38.50L75.30-38.50L75.30-38.50Q66.60-31.10 63.05-22.35L63.05-22.35L63.05-22.35Q59.50-13.60 59.50-6.90L59.50-6.90L59.50-6.90Q59.50-4.20 59.90-3.50L59.90-3.50L59.90-3.50Q60.50-1.80 63.50-0.65L63.50-0.65L63.50-0.65Q66.50 0.50 68.50 0.20L68.50 0.20L68.50 0.20Q69.50 0 71.95-2.85L71.95-2.85L71.95-2.85Q74.40-5.70 76.65-8.75L76.65-8.75L76.65-8.75Q78.90-11.80 79.50-12.70L79.50-12.70L79.50-12.70Q79.40-12.30 79.25-10.80L79.25-10.80L79.25-10.80Q79.10-9.30 79.10-7.70L79.10-7.70L79.10-7.70Q79.10-3.60 80.30-1.90L80.30-1.90L80.30-1.90Q80.90-1.30 82.95-0.55L82.95-0.55L82.95-0.55Q85 0.20 86.60 0.20L86.60 0.20L86.60 0.20Q87.20 0.20 88 0L88 0L88 0Q92.30-1.40 95.50-7.60L95.50-7.60L95.50-7.60Q98.70-13.80 100.60-20.45L100.60-20.45L100.60-20.45Q102.50-27.10 102.50-27.90L102.50-27.90L102.50-27.90Q101.70-26.40 98.95-21.50L98.95-21.50L98.95-21.50Q96.20-16.60 93.40-12.70L93.40-12.70L93.40-12.70Q91.60-10.20 89.55-8.15L89.55-8.15L89.55-8.15Q87.50-6.10 87.30-6.50L87.30-6.50ZM79.10-33.10L79.10-33.10Q81-35.10 83-35.10L83-35.10L83-35.10Q83.90-35.10 84.70-34.75L84.70-34.75L84.70-34.75Q85.50-34.40 85.95-34L85.95-34L85.95-34Q86.40-33.60 86.50-33.50L86.50-33.50L86.50-33.50Q86-32.50 83.95-28.85L83.95-28.85L83.95-28.85Q81.90-25.20 78.90-20.35L78.90-20.35L78.90-20.35Q75.90-15.50 73.10-11.60L73.10-11.60L73.10-11.60Q71.50-9.30 69.95-7.60L69.95-7.60L69.95-7.60Q68.40-5.90 67.90-5.50L67.90-5.50L67.90-5.50Q67.90-8.60 68.20-11.65L68.20-11.65L68.20-11.65Q68.50-14.70 71-20.85L71-20.85L71-20.85Q73.50-27 79.10-33.10L79.10-33.10ZM124-7.10L124-7.10Q125.60-13.60 132.60-29.80L132.60-29.80L132.60-29.80Q134.70-34.90 134.70-35L134.70-35L134.70-35Q134.80-35.60 133.45-36.60L133.45-36.60L133.45-36.60Q132.10-37.60 130.40-38.30L130.40-38.30L130.40-38.30Q128.70-39 127.60-38.80L127.60-38.80L127.60-38.80Q124.60-38.10 114.70-27.30L114.70-27.30L114.70-27.30Q111.30-23.60 108.30-19.40L108.30-19.40L108.30-19.40Q105.30-15.20 105.30-15L105.30-15L105.30-15Q105.60-16 106.95-19.65L106.95-19.65L106.95-19.65Q108.30-23.30 110.10-27.30L110.10-27.30L110.10-27.30Q112.10-32 114-35.90L114-35.90L114-35.90Q115.90-39.80 116.50-40.80L116.50-40.80L116.50-40.80Q116.50-41 115.60-41.60L115.60-41.60L115.60-41.60Q114.70-42.20 113.10-42.20L113.10-42.20L113.10-42.20Q111.30-42.20 109.20-41.30L109.20-41.30L109.20-41.30Q106.80-40.40 103.10-32.80L103.10-32.80L103.10-32.80Q99.40-25.20 96.45-16.35L96.45-16.35L96.45-16.35Q93.50-7.50 93.50-4L93.50-4L93.50-4Q93.50-3.40 93.70-2.80L93.70-2.80L93.70-2.80Q94.60-1.10 96.35-0.50L96.35-0.50L96.35-0.50Q98.10 0.10 100 0.10L100 0.10L100 0.10Q100.50 0.10 100.85 0.05L100.85 0.05L100.85 0.05Q101.20 0 101.30 0L101.30 0L101.30 0Q101.70-0.70 103.10-3.40L103.10-3.40L103.10-3.40Q104.50-6.10 106.85-10.05L106.85-10.05L106.85-10.05Q109.20-14 111.90-17.80L111.90-17.80L111.90-17.80Q114.80-21.80 117.95-25.55L117.95-25.55L117.95-25.55Q121.10-29.30 123.35-31.60L123.35-31.60L123.35-31.60Q125.60-33.90 126.20-34.50L126.20-34.50L126.20-34.50Q125.40-32.90 122.85-27.45L122.85-27.45L122.85-27.45Q120.30-22 117.90-15.45L117.90-15.45L117.90-15.45Q115.50-8.90 115.50-5.10L115.50-5.10L115.50-5.10Q115.50-3.40 116.10-2.30L116.10-2.30L116.10-2.30Q116.90-1.30 119.95-0.50L119.95-0.50L119.95-0.50Q123 0.30 124.10 0L124.10 0L124.10 0Q125.60-0.40 129.55-4.85L129.55-4.85L129.55-4.85Q133.50-9.30 135-11.90L135-11.90L135-11.90Q137.40-16 137.40-21.30L137.40-21.30L137.40-21.30Q137.40-22.20 137.35-22.80L137.35-22.80L137.35-22.80Q137.30-23.40 137.30-23.50L137.30-23.50L137.30-23.50Q136-20.40 133.45-16.70L133.45-16.70L133.45-16.70Q130.90-13 128.20-10.25L128.20-10.25L128.20-10.25Q125.50-7.50 124-7.10L124-7.10ZM173.50-22.70L173.50-22.70Q173.90-22.70 174.30-23.65L174.30-23.65L174.30-23.65Q174.70-24.60 174.70-25.60L174.70-25.60L174.70-25.60Q174.70-26.90 174-27.30L174-27.30L174-27.30Q168.60-29.20 168.50-34L168.50-34L168.50-34Q168.50-35.80 169.55-38L169.55-38L169.55-38Q170.60-40.20 171.70-41.85L171.70-41.85L171.70-41.85Q172.80-43.50 173.20-43.90L173.20-43.90L173.20-43.90Q172.90-44.30 171.80-45.65L171.80-45.65L171.80-45.65Q170.70-47 169.25-48.15L169.25-48.15L169.25-48.15Q167.80-49.30 166.60-49.10L166.60-49.10L166.60-49.10Q165.80-49 164.70-46.95L164.70-46.95L164.70-46.95Q163.60-44.90 162.80-42.80L162.80-42.80L162.80-42.80Q162-40.70 161.80-40L161.80-40L161.80-40Q161.80-40.10 159.50-40.70L159.50-40.70L159.50-40.70Q157.20-41.30 154.70-41.30L154.70-41.30L154.70-41.30Q145.70-41.30 140.80-33.30L140.80-33.30L140.80-33.30Q137.60-28 137.60-23.50L137.60-23.50L137.60-23.50Q137.60-20.60 138.75-18.65L138.75-18.65L138.75-18.65Q139.90-16.70 141.35-15.55L141.35-15.55L141.35-15.55Q142.80-14.40 142.80-14.60L142.80-14.60L142.80-14.60Q142.10-14 140.05-11.90L140.05-11.90L140.05-11.90Q138-9.80 136.10-7.60L136.10-7.60L136.10-7.60Q134.20-5.40 134.40-4.60L134.40-4.60L134.40-4.60Q134.50-3.80 136-2.80L136-2.80L136-2.80Q137.50-1.80 139.10-1L139.10-1L139.10-1Q140.70-0.20 141.20 0L141.20 0L141.20 0Q141.80-0.30 144.10-1.30L144.10-1.30L144.10-1.30Q146.40-2.30 149.70-3.25L149.70-3.25L149.70-3.25Q153-4.20 156-4.20L156-4.20L156-4.20Q159.10-4.20 161-3.10L161-3.10L161-3.10Q164-1.50 165.65 1L165.65 1L165.65 1Q167.30 3.50 167.30 6.80L167.30 6.80L167.30 6.80Q167.30 14.50 158.30 24.70L158.30 24.70L158.30 24.70Q152.60 31.10 146.15 34.95L146.15 34.95L146.15 34.95Q139.70 38.80 134.90 38.80L134.90 38.80L134.90 38.80Q132.20 38.80 130.60 37.60L130.60 37.60L130.60 37.60Q128 35.70 128 32.50L128 32.50L128 32.50Q128 28.70 130.95 23.90L130.95 23.90L130.95 23.90Q133.90 19.10 137.55 14.90L137.55 14.90L137.55 14.90Q141.20 10.70 141.20 10.90L141.20 10.90L141.20 10.90Q140.90 10.30 139.65 8.60L139.65 8.60L139.65 8.60Q138.40 6.90 136.80 5.50L136.80 5.50L136.80 5.50Q135.20 4.10 134 4.70L134 4.70L134 4.70Q132.80 5.40 129.75 9.55L129.75 9.55L129.75 9.55Q126.70 13.70 124.25 19.05L124.25 19.05L124.25 19.05Q121.80 24.40 121.80 29.30L121.80 29.30L121.80 29.30Q121.80 36.90 128.60 40.70L128.60 40.70L128.60 40.70Q132.60 43 137.70 43L137.70 43L137.70 43Q145.50 43 154.10 38.15L154.10 38.15L154.10 38.15Q162.70 33.30 168.60 26.20L168.60 26.20L168.60 26.20Q171.40 22.90 172.95 19.10L172.95 19.10L172.95 19.10Q174.50 15.30 174.50 11.40L174.50 11.40L174.50 11.40Q174.50 6.50 171.75 1.90L171.75 1.90L171.75 1.90Q169-2.70 163.20-6.60L163.20-6.60L163.20-6.60Q157.80-10.20 151.30-10.20L151.30-10.20L151.30-10.20Q148.80-10.20 146.65-9.75L146.65-9.75L146.65-9.75Q144.50-9.30 143.20-8.80L143.20-8.80L143.20-8.80Q141.90-8.30 141.60-8.10L141.60-8.10L146.20-12.60L146.20-12.60Q146.60-12.50 147.95-12.30L147.95-12.30L147.95-12.30Q149.30-12.10 151.10-12.10L151.10-12.10L151.10-12.10Q157.20-12.10 161.20-15L161.20-15L161.20-15Q164-17 165.60-19.70L165.60-19.70L165.60-19.70Q167.20-22.40 167.70-24.40L167.70-24.40L167.70-24.40Q168.20-26.40 168.20-27L168.20-27L168.20-27Q168.40-26.70 169.15-25.65L169.15-25.65L169.15-25.65Q169.90-24.60 171.10-23.65L171.10-23.65L171.10-23.65Q172.30-22.70 173.50-22.70L173.50-22.70ZM161.30-35.40L161.30-35.40Q162.60-34.60 162.60-31.80L162.60-31.80L162.60-31.80Q162.60-29.90 161.85-27.70L161.85-27.70L161.85-27.70Q161.10-25.50 159.60-23.70L159.60-23.70L159.60-23.70Q157.10-20.70 154-18.95L154-18.95L154-18.95Q150.90-17.20 148.50-17.20L148.50-17.20L148.50-17.20Q147-17.20 146.20-18L146.20-18L146.20-18Q145.40-18.80 145.40-21.20L145.40-21.20L145.40-21.20Q145.40-23.80 146.40-26.75L146.40-26.75L146.40-26.75Q147.40-29.70 149.20-31.70L149.20-31.70L149.20-31.70Q151-33.80 153.65-34.85L153.65-34.85L153.65-34.85Q156.30-35.90 158.70-35.90L158.70-35.90L158.70-35.90Q160.30-35.90 161.30-35.40L161.30-35.40ZM197.90-4.40L197.90-4.40Q200.40-4.50 203.45-7.90L203.45-7.90L203.45-7.90Q206.50-11.30 209.05-15.45L209.05-15.45L209.05-15.45Q211.60-19.60 211.60-19.80L211.60-19.80L211.60-19.80Q211.60-19.20 210.00-14.40L210.00-14.40L210.00-14.40Q208.40-9.60 205.75-5.20L205.75-5.20L205.75-5.20Q203.10-0.80 199.80 0L199.80 0L199.80 0Q198.60 0.20 198.10 0.20L198.10 0.20L198.10 0.20Q195.10 0.20 191.90-2.90L191.90-2.90L191.90-2.90Q189.80-5 189.80-11.50L189.80-11.50L189.80-11.50Q189.20-10.60 187.30-8L187.30-8L187.30-8Q185.40-5.40 183.20-2.85L183.20-2.85L183.20-2.85Q181.00-0.30 180.00 0L180.00 0L180.00 0Q179.20 0.20 178.50 0.20L178.50 0.20L178.50 0.20Q176.70 0.20 174.75-0.55L174.75-0.55L174.75-0.55Q172.80-1.30 171.30-2.90L171.30-2.90L171.30-2.90Q170.50-3.90 170.50-7.40L170.50-7.40L170.50-7.40Q170.50-14.20 172.90-21.40L172.90-21.40L172.90-21.40Q174.30-25.70 176.45-29.95L176.45-29.95L176.45-29.95Q178.60-34.20 180.65-37.10L180.65-37.10L180.65-37.10Q182.70-40 183.90-40.60L183.90-40.60L183.90-40.60Q185.00-41.10 186.40-41.10L186.40-41.10L186.40-41.10Q187.70-41.10 188.75-40.50L188.75-40.50L188.75-40.50Q189.80-39.90 190.35-39.30L190.35-39.30L190.35-39.30Q190.90-38.70 191.00-38.50L191.00-38.50L191.00-38.50Q190.50-37.70 188.70-34.65L188.70-34.65L188.70-34.65Q186.90-31.60 184.65-27.15L184.65-27.15L184.65-27.15Q182.40-22.70 180.80-18.60L180.80-18.60L180.80-18.60Q179.40-15 178.50-11.25L178.50-11.25L178.50-11.25Q177.60-7.50 177.60-5.60L177.60-5.60L177.60-5.60Q177.60-4.20 178.10-4.40L178.10-4.40L178.10-4.40Q180.40-5.10 182.85-9L182.85-9L182.85-9Q185.30-12.90 189.00-20.30L189.00-20.30L189.00-20.30Q192.50-27.20 195.00-31.60L195.00-31.60L195.00-31.60Q197.50-36 200.30-39L200.30-39L200.30-39Q201.60-40.40 203.20-40.40L203.20-40.40L203.20-40.40Q204.60-40.40 205.90-39.60L205.90-39.60L205.90-39.60Q207.20-38.80 208.05-38L208.05-38L208.05-38Q208.90-37.20 209.10-36.90L209.10-36.90L209.10-36.90Q208.70-36.20 207.30-33.65L207.30-33.65L207.30-33.65Q205.90-31.10 204.05-27.25L204.05-27.25L204.05-27.25Q202.20-23.40 200.60-19.50L200.60-19.50L200.60-19.50Q199.10-15.70 198.30-11.90L198.30-11.90L198.30-11.90Q197.50-8.10 197.50-5.90L197.50-5.90L197.50-5.90Q197.50-4.40 197.90-4.40L197.90-4.40ZM220.40-41.80L220.40-41.80Q220.70-42.60 221.90-45.25L221.90-45.25L221.90-45.25Q223.10-47.90 224.50-49.80L224.50-49.80L224.50-49.80Q226.10-51.80 229.60-51.80L229.60-51.80L229.60-51.80Q231.40-51.80 232.95-51.30L232.95-51.30L232.95-51.30Q234.50-50.80 234.30-50.50L234.30-50.50L232.90-48.40L232.90-48.40Q229.40-43.60 228.10-41.10L228.10-41.10L228.10-41.10Q227.80-40.50 226.40-40.50L226.40-40.50L226.40-40.50Q225.00-40.50 223.00-41.05L223.00-41.05L223.00-41.05Q221.00-41.60 220.40-41.80L220.40-41.80ZM227.30-37.30L227.30-37.30Q227.30-37.40 225.60-38.10L225.60-38.10L225.60-38.10Q223.90-38.80 222.30-38.80L222.30-38.80L222.30-38.80Q219.60-38.80 217.90-36.80L217.90-36.80L217.90-36.80Q215.60-34.10 212.85-27.50L212.85-27.50L212.85-27.50Q210.10-20.90 209.00-14.70L209.00-14.70L209.00-14.70Q208.50-12 208.50-9.30L208.50-9.30L208.50-9.30Q208.50-4.90 210.00-2.70L210.00-2.70L210.00-2.70Q211.90 0.20 214.60 0.20L214.60 0.20L214.60 0.20Q215.10 0.20 216.10 0L216.10 0L216.10 0Q219.90-1 223.05-5.30L223.05-5.30L223.05-5.30Q226.20-9.60 228.25-14.15L228.25-14.15L228.25-14.15Q230.30-18.70 230.30-19.20L230.30-19.20L230.30-19.20Q230.30-18.90 227.85-15.15L227.85-15.15L227.85-15.15Q225.40-11.40 222.20-8L222.20-8L222.20-8Q219.00-4.60 215.80-3.90L215.80-3.90L215.80-3.90Q214.60-3.60 214.60-6L214.60-6L214.60-6Q214.60-9.20 216.55-15.50L216.55-15.50L216.55-15.50Q218.50-21.80 221.50-28L221.50-28L221.50-28Q224.50-34.20 227.30-37.30L227.30-37.30ZM254.00-7.10L254.00-7.10Q255.60-13.60 262.60-29.80L262.60-29.80L262.60-29.80Q264.70-34.90 264.70-35L264.70-35L264.70-35Q264.80-35.60 263.45-36.60L263.45-36.60L263.45-36.60Q262.10-37.60 260.40-38.30L260.40-38.30L260.40-38.30Q258.70-39 257.60-38.80L257.60-38.80L257.60-38.80Q254.60-38.10 244.70-27.30L244.70-27.30L244.70-27.30Q241.30-23.60 238.30-19.40L238.30-19.40L238.30-19.40Q235.30-15.20 235.30-15L235.30-15L235.30-15Q235.60-16 236.95-19.65L236.95-19.65L236.95-19.65Q238.30-23.30 240.10-27.30L240.10-27.30L240.10-27.30Q242.10-32 244.00-35.90L244.00-35.90L244.00-35.90Q245.90-39.80 246.50-40.80L246.50-40.80L246.50-40.80Q246.50-41 245.60-41.60L245.60-41.60L245.60-41.60Q244.70-42.20 243.10-42.20L243.10-42.20L243.10-42.20Q241.30-42.20 239.20-41.30L239.20-41.30L239.20-41.30Q236.80-40.40 233.10-32.80L233.10-32.80L233.10-32.80Q229.40-25.20 226.45-16.35L226.45-16.35L226.45-16.35Q223.50-7.50 223.50-4L223.50-4L223.50-4Q223.50-3.40 223.70-2.80L223.70-2.80L223.70-2.80Q224.60-1.10 226.35-0.50L226.35-0.50L226.35-0.50Q228.10 0.10 230.00 0.10L230.00 0.10L230.00 0.10Q230.50 0.10 230.85 0.05L230.85 0.05L230.85 0.05Q231.20 0 231.30 0L231.30 0L231.30 0Q231.70-0.70 233.10-3.40L233.10-3.40L233.10-3.40Q234.50-6.10 236.85-10.05L236.85-10.05L236.85-10.05Q239.20-14 241.90-17.80L241.90-17.80L241.90-17.80Q244.80-21.80 247.95-25.55L247.95-25.55L247.95-25.55Q251.10-29.30 253.35-31.60L253.35-31.60L253.35-31.60Q255.60-33.90 256.20-34.50L256.20-34.50L256.20-34.50Q255.40-32.90 252.85-27.45L252.85-27.45L252.85-27.45Q250.30-22 247.90-15.45L247.90-15.45L247.90-15.45Q245.50-8.90 245.50-5.10L245.50-5.10L245.50-5.10Q245.50-3.40 246.10-2.30L246.10-2.30L246.10-2.30Q246.90-1.30 249.95-0.50L249.95-0.50L249.95-0.50Q253.00 0.30 254.10 0L254.10 0L254.10 0Q255.60-0.40 259.55-4.85L259.55-4.85L259.55-4.85Q263.50-9.30 265-11.90L265-11.90L265-11.90Q267.40-16 267.40-21.30L267.40-21.30L267.40-21.30Q267.40-22.20 267.35-22.80L267.35-22.80L267.35-22.80Q267.30-23.40 267.30-23.50L267.30-23.50L267.30-23.50Q266-20.40 263.45-16.70L263.45-16.70L263.45-16.70Q260.90-13 258.20-10.25L258.20-10.25L258.20-10.25Q255.50-7.50 254.00-7.10L254.00-7.10ZM275.70-13.70L275.70-13.70Q277.30-13.70 281.95-17.40L281.95-17.40L281.95-17.40Q286.60-21.10 290.35-26.10L290.35-26.10L290.35-26.10Q294.10-31.10 294.10-35.20L294.10-35.20L294.10-35.20Q294.10-36.90 293.30-38.50L293.30-38.50L293.30-38.50Q293-39.20 291.60-40.40L291.60-40.40L291.60-40.40Q290.20-41.60 288.30-42.50L288.30-42.50L288.30-42.50Q286.40-43.40 284.50-43.40L284.50-43.40L284.50-43.40Q279.90-43.40 273.30-36.80L273.30-36.80L273.30-36.80Q268.30-30 265.90-23.35L265.90-23.35L265.90-23.35Q263.50-16.70 263.50-11.90L263.50-11.90L263.50-11.90Q263.50-10.40 263.60-9.70L263.60-9.70L263.60-9.70Q264.10-4.40 266.90-2.20L266.90-2.20L266.90-2.20Q269.70 0 272.40 0L272.40 0L272.40 0Q276.90 0 281.75-4L281.75-4L281.75-4Q286.60-8 289.20-12.80L289.20-12.80L289.20-12.80Q290.30-14.90 290.65-16.45L290.65-16.45L290.65-16.45Q291-18 291-18.60L291-18.60L291-18.60Q290.80-18.20 289.75-16.95L289.75-16.95L289.75-16.95Q288.70-15.70 286.75-13.70L286.75-13.70L286.75-13.70Q284.80-11.70 282.30-9.70L282.30-9.70L282.30-9.70Q279.70-7.60 277.85-6.40L277.85-6.40L277.85-6.40Q276-5.20 274.10-4.90L274.10-4.90L274.10-4.90Q271.10-4.20 271.10-8.80L271.10-8.80L271.10-8.80Q271.10-10.80 271.40-12.25L271.40-12.25L271.40-12.25Q271.70-13.70 272-14.40L272-14.40L272-14.40Q272.30-15.10 272.40-15.20L272.40-15.20L272.40-15.20Q272.40-14.80 273-14.25L273-14.25L273-14.25Q273.60-13.70 275.70-13.70L275.70-13.70ZM289.20-39.40L289.20-39.40Q289.20-38.60 288.75-36.70L288.75-36.70L288.75-36.70Q288.30-34.80 286.90-32.20L286.90-32.20L286.90-32.20Q282.60-26.20 279.60-23.35L279.60-23.35L279.60-23.35Q276.60-20.50 274.95-19.80L274.95-19.80L274.95-19.80Q273.30-19.10 273.30-19.40L273.30-19.40L273.30-19.40Q273.50-20 274.35-22.20L274.35-22.20L274.35-22.20Q275.20-24.40 276.80-27.45L276.80-27.45L276.80-27.45Q278.40-30.50 280.60-33.10L280.60-33.10L280.60-33.10Q282.70-35.50 284.60-36.90L284.60-36.90L284.60-36.90Q286.50-38.30 287.70-38.80L287.70-38.80L287.70-38.80Q288.90-39.30 289.20-39.40L289.20-39.40Z"></path></g><g id="" class="logo--name svgSloganText_1 sloganBox" transform="scale(1) translate(160.97500848770142,380.3799987792969)" fill="#ffffff"><path d="M23.28-8.23L23.28-8.23Q23.28-6.03 22.24-4.07L22.24-4.07L22.24-4.07Q21.21-2.12 19.04-0.90L19.04-0.90L19.04-0.90Q16.88 0.32 13.66 0.32L13.66 0.32L13.66 0.32Q10.53 0.32 8.10-0.83L8.10-0.83L8.10-0.83Q5.66-1.98 4.21-3.98L4.21-3.98L4.21-3.98Q2.76-5.98 2.53-8.46L2.53-8.46L5.93-8.46L5.93-8.46Q6.12-7.04 6.99-5.61L6.99-5.61L6.99-5.61Q7.87-4.19 9.52-3.24L9.52-3.24L9.52-3.24Q11.18-2.30 13.52-2.30L13.52-2.30L13.52-2.30Q16.61-2.30 18.24-3.96L18.24-3.96L18.24-3.96Q19.87-5.61 19.87-8.14L19.87-8.14L19.87-8.14Q19.87-10.30 18.79-11.66L18.79-11.66L18.79-11.66Q17.71-13.02 16.12-13.75L16.12-13.75L16.12-13.75Q14.54-14.49 11.78-15.36L11.78-15.36L11.78-15.36Q8.74-16.33 6.88-17.23L6.88-17.23L6.88-17.23Q5.01-18.12 3.73-19.87L3.73-19.87L3.73-19.87Q2.44-21.62 2.44-24.52L2.44-24.52L2.44-24.52Q2.44-28.20 5.01-30.50L5.01-30.50L5.01-30.50Q7.59-32.80 12.10-32.80L12.10-32.80L12.10-32.80Q16.70-32.80 19.39-30.54L19.39-30.54L19.39-30.54Q22.08-28.29 22.59-24.93L22.59-24.93L19.14-24.93L19.14-24.93Q18.72-27.00 16.95-28.61L16.95-28.61L16.95-28.61Q15.18-30.22 12.10-30.22L12.10-30.22L12.10-30.22Q9.25-30.22 7.54-28.75L7.54-28.75L7.54-28.75Q5.84-27.28 5.84-24.66L5.84-24.66L5.84-24.66Q5.84-22.59 6.90-21.30L6.90-21.30L6.90-21.30Q7.96-20.01 9.50-19.32L9.50-19.32L9.50-19.32Q11.04-18.63 13.71-17.76L13.71-17.76L13.71-17.76Q16.79-16.79 18.70-15.87L18.70-15.87L18.70-15.87Q20.61-14.95 21.94-13.11L21.94-13.11L21.94-13.11Q23.28-11.27 23.28-8.23L23.28-8.23ZM64.74 0L60.60 0L50.43-11.50L50.43 0L47.16 0L47.16-34.04L50.43-34.04L50.43-14.08L60.41-25.12L64.41-25.12L52.87-12.70L64.74 0ZM85.82-32.57L85.82-32.57Q85.82-33.58 86.48-34.18L86.48-34.18L86.48-34.18Q87.15-34.78 88.21-34.78L88.21-34.78L88.21-34.78Q89.27-34.78 89.91-34.18L89.91-34.18L89.91-34.18Q90.56-33.58 90.56-32.57L90.56-32.57L90.56-32.57Q90.56-31.60 89.91-31.00L89.91-31.00L89.91-31.00Q89.27-30.41 88.21-30.41L88.21-30.41L88.21-30.41Q87.15-30.41 86.48-31.00L86.48-31.00L86.48-31.00Q85.82-31.60 85.82-32.57L85.82-32.57ZM86.55-25.12L89.82-25.12L89.82 0L86.55 0L86.55-25.12ZM127.37-25.58L127.37-25.58Q131.74-25.58 134.48-22.79L134.48-22.79L134.48-22.79Q137.21-20.01 137.21-14.63L137.21-14.63L137.21 0L134.04 0L134.04-14.40L134.04-14.40Q134.04-18.49 131.97-20.68L131.97-20.68L131.97-20.68Q129.90-22.86 126.31-22.86L126.31-22.86L126.31-22.86Q122.54-22.86 120.31-20.45L120.31-20.45L120.31-20.45Q118.08-18.03 118.08-13.34L118.08-13.34L118.08 0L114.81 0L114.81-25.12L118.08-25.12L118.08-18.95L118.08-18.95Q119.04-22.17 121.57-23.87L121.57-23.87L121.57-23.87Q124.10-25.58 127.37-25.58L127.37-25.58ZM173.11-25.44L173.11-25.44Q177.89-25.44 181.04-22.91L181.04-22.91L181.04-22.91Q184.19-20.38 184.88-16.19L184.88-16.19L181.53-16.19L181.53-16.19Q181.02-19.18 178.72-20.91L178.72-20.91L178.72-20.91Q176.42-22.63 173.06-22.63L173.06-22.63L173.06-22.63Q170.62-22.63 168.58-21.53L168.58-21.53L168.58-21.53Q166.53-20.42 165.31-18.15L165.31-18.15L165.31-18.15Q164.09-15.87 164.09-12.56L164.09-12.56L164.09-12.56Q164.09-9.25 165.31-6.97L165.31-6.97L165.31-6.97Q166.53-4.69 168.58-3.59L168.58-3.59L168.58-3.59Q170.62-2.48 173.06-2.48L173.06-2.48L173.06-2.48Q176.42-2.48 178.72-4.21L178.72-4.21L178.72-4.21Q181.02-5.93 181.53-8.92L181.53-8.92L184.88-8.92L184.88-8.92Q184.19-4.74 181.04-2.21L181.04-2.21L181.04-2.21Q177.89 0.32 173.11 0.32L173.11 0.32L173.11 0.32Q169.52 0.32 166.74-1.22L166.74-1.22L166.74-1.22Q163.95-2.76 162.39-5.68L162.39-5.68L162.39-5.68Q160.83-8.60 160.83-12.56L160.83-12.56L160.83-12.56Q160.83-16.51 162.39-19.43L162.39-19.43L162.39-19.43Q163.95-22.36 166.74-23.90L166.74-23.90L166.74-23.90Q169.52-25.44 173.11-25.44L173.11-25.44ZM219.26-25.44L219.26-25.44Q223.08-25.44 225.77-23.46L225.77-23.46L225.77-23.46Q228.46-21.48 229.47-18.22L229.47-18.22L229.47-25.12L232.65-25.12L232.65 0L229.47 0L229.47-6.90L229.47-6.90Q228.46-3.63 225.77-1.66L225.77-1.66L225.77-1.66Q223.08 0.32 219.26 0.32L219.26 0.32L219.26 0.32Q215.86 0.32 213.16-1.24L213.16-1.24L213.16-1.24Q210.47-2.81 208.98-5.73L208.98-5.73L208.98-5.73Q207.48-8.65 207.48-12.56L207.48-12.56L207.48-12.56Q207.48-16.51 208.98-19.43L208.98-19.43L208.98-19.43Q210.47-22.36 213.14-23.90L213.14-23.90L213.14-23.90Q215.81-25.44 219.26-25.44L219.26-25.44ZM220.09-22.59L220.09-22.59Q215.86-22.59 213.30-19.89L213.30-19.89L213.30-19.89Q210.75-17.20 210.75-12.56L210.75-12.56L210.75-12.56Q210.75-7.91 213.30-5.22L213.30-5.22L213.30-5.22Q215.86-2.53 220.09-2.53L220.09-2.53L220.09-2.53Q222.76-2.53 224.89-3.77L224.89-3.77L224.89-3.77Q227.03-5.01 228.25-7.29L228.25-7.29L228.25-7.29Q229.47-9.57 229.47-12.56L229.47-12.56L229.47-12.56Q229.47-15.55 228.25-17.82L228.25-17.82L228.25-17.82Q227.03-20.10 224.89-21.34L224.89-21.34L224.89-21.34Q222.76-22.59 220.09-22.59L220.09-22.59ZM260.90-19.92L260.90-19.92Q262.01-22.63 264.45-24.10L264.45-24.10L264.45-24.10Q266.88-25.58 270.38-25.58L270.38-25.58L270.38-22.08L269.32-22.08L269.32-22.08Q265.69-22.08 263.30-20.13L263.30-20.13L263.30-20.13Q260.90-18.17 260.90-13.75L260.90-13.75L260.90 0L257.64 0L257.64-25.12L260.90-25.12L260.90-19.92ZM303.61-2.35L303.61-2.35Q307.01-2.35 309.31-4.05L309.31-4.05L309.31-4.05Q311.61-5.75 312.07-8.65L312.07-8.65L315.47-8.65L315.47-8.65Q314.78-4.65 311.66-2.16L311.66-2.16L311.66-2.16Q308.53 0.32 303.74 0.32L303.74 0.32L303.74 0.32Q300.16 0.32 297.37-1.22L297.37-1.22L297.37-1.22Q294.59-2.76 293.03-5.68L293.03-5.68L293.03-5.68Q291.46-8.60 291.46-12.56L291.46-12.56L291.46-12.56Q291.46-16.51 293.03-19.43L293.03-19.43L293.03-19.43Q294.59-22.36 297.37-23.90L297.37-23.90L297.37-23.90Q300.16-25.44 303.74-25.44L303.74-25.44L303.74-25.44Q307.42-25.44 310.11-23.90L310.11-23.90L310.11-23.90Q312.81-22.36 314.21-19.78L314.21-19.78L314.21-19.78Q315.61-17.20 315.61-14.17L315.61-14.17L315.61-14.17Q315.61-12.88 315.43-11.82L315.43-11.82L294.64-11.82L294.64-11.82Q294.68-8.65 295.95-6.51L295.95-6.51L295.95-6.51Q297.21-4.37 299.24-3.36L299.24-3.36L299.24-3.36Q301.26-2.35 303.61-2.35L303.61-2.35ZM303.74-22.82L303.74-22.82Q301.31-22.82 299.28-21.80L299.28-21.80L299.28-21.80Q297.26-20.79 295.99-18.70L295.99-18.70L295.99-18.70Q294.73-16.61 294.64-13.48L294.64-13.48L312.39-13.48L312.39-13.48Q312.58-16.56 311.38-18.68L311.38-18.68L311.38-18.68Q310.18-20.79 308.16-21.80L308.16-21.80L308.16-21.80Q306.14-22.82 303.74-22.82L303.74-22.82Z"></path></g></g></g></g></svg>