<svg version="1.1" xmlns="http://www.w3.org/2000/svg" xmlns:xlink="http://www.w3.org/1999/xlink" xmlns:i="http://ns.adobe.com/AdobeIllustrator/10.0/" xmlns:sketch="http://www.bohemiancoding.com/sketch/ns" viewBox="0 0 640 480" xml:space="preserve" preserveAspectRatio="xMidYMid meet" class="">{{text2Gradient}}<rect x="0px" y="0px" width="100%" height="100%" fill="#441027"></rect><g class="logo-container-box logoContainerBox" transform="scale(0.99) translate(3.2323308617177418,2.424234794847905)"><g class="containerBody" transform="scale(1.0977202242598025) translate(-28.486756299041474,-40.87273858048229)"><g class="sampleIconBox" transform="scale(1) translate(0,0)"><g class="sampleIcons_1" transform="scale(0.8809892057672244) translate(281.3993579228719,238.78866845703124)" fill="#f75e91"><path d="M78.30 14.70C81.45 8.70 80.10 1.95 76.35 6.60C72.15 12.60 48.90 6.60 29.10-4.35C38.85-14.25 48.15-30.15 57.15-46.65C73.95-77.40 87-94.05 99.90-94.05C105.75-94.05 96.15-77.10 77.55-63.60C72.75-60 75.75-57.15 78.90-57.15C87-57.15 110.70-70.20 112.50-83.25C114-93.45 106.95-101.25 98.85-101.25C76.20-101.25 58.95-82.95 40.20-49.20C28.35-27.90 22.80-16.50 18.30-11.10C16.50-12.45 14.70-13.80 13.20-15.15C4.05-22.65-12.60-0.90 3.30 4.65C8.10 6.30 12.90 5.85 17.40 3.90C35.25 17.55 68.25 32.25 78.30 14.70ZM120 10.05L138.15-19.35C153-44.25 167.40-68.85 166.95-87.90C166.95-115.35 126.45-110.85 102.60-82.50C88.80-66 90.15-46.50 106.95-45.75C112.20-45.45 117.60-49.95 112.95-51.15C106.20-52.95 107.40-65.10 118.65-77.40C139.05-100.05 154.80-99.45 154.80-89.40C155.10-75.15 141.60-50.55 123-22.35C116.10-11.85 110.85-4.35 105.45 3.90C102.75 7.50 115.05 17.70 120 10.05Z"></path></g></g><g class="sampleTexts_1" transform="scale(1) translate(-0.00000762939453125,11.584512329101557)"><g class="logo--name svgLogoName_1 logoNameBox" transform="scale(1) translate(115.44228005385958,238.01565554444676)" fill="#ffffff"><path d="M 377.627 43.706 L 377.596 43.782 Q 375.659 46.084 374.154 48.521 A 36.143 36.143 0 0 0 371.544 53.608 A 125.597 125.597 0 0 0 367.331 65.311 A 125.597 125.597 0 0 1 363.118 77.014 A 4.769 4.769 0 0 1 362.436 78.186 A 3.51 3.51 0 0 1 360.472 79.42 A 5.732 5.732 0 0 1 358.373 79.546 A 5.308 5.308 0 0 1 357.018 79.179 A 5.416 5.416 0 0 1 354.512 77.047 A 6.672 6.672 0 0 1 354.417 76.895 A 3.599 3.599 0 0 1 354.049 73.935 A 5.365 5.365 0 0 1 354.263 73.322 A 108.482 108.482 0 0 0 358.082 62.565 Q 359.755 56.955 361.926 51.641 Q 364.097 46.327 367.27 41.698 Q 370.444 37.069 375.592 33.885 A 18.649 18.649 0 0 1 378.19 34.251 Q 381.001 34.863 382.997 36.346 A 10.395 10.395 0 0 1 383.139 36.454 Q 386.03 38.681 387.594 42.176 A 25.477 25.477 0 0 1 389.204 47.133 A 31.556 31.556 0 0 1 389.696 50.026 A 57.836 57.836 0 0 1 390.101 58.857 Q 389.967 63.332 389.395 67.58 A 932.689 932.689 0 0 1 388.914 71.11 Q 388.691 72.721 388.485 74.157 A 529.69 529.69 0 0 1 388.35 75.096 Q 388.848 74.326 389.325 73.503 A 14.885 14.885 0 0 0 390.18 71.772 A 95.793 95.793 0 0 0 392.588 66.458 A 94.156 94.156 0 0 0 395.21 59.388 A 167.031 167.031 0 0 1 399.861 46.846 A 5.104 5.104 0 0 1 400.505 45.706 A 3.396 3.396 0 0 1 402.524 44.402 A 5.755 5.755 0 0 1 404.874 44.352 A 5.539 5.539 0 0 1 405.961 44.681 A 5.587 5.587 0 0 1 408.563 46.902 A 6.803 6.803 0 0 1 408.578 46.927 A 3.454 3.454 0 0 1 409.016 49.599 A 5.412 5.412 0 0 1 408.716 50.538 A 98.981 98.981 0 0 0 406.23 57.142 L 404.033 63.688 A 116.462 116.462 0 0 1 401.632 70.194 A 45.636 45.636 0 0 1 401.428 70.691 A 48.488 48.488 0 0 1 398.486 76.568 A 92.095 92.095 0 0 1 397.488 78.268 Q 396.956 79.153 396.351 80.123 A 150.667 150.667 0 0 1 396.176 80.402 A 28.723 28.723 0 0 1 393.195 84.356 A 15.558 15.558 0 0 1 390.279 86.903 A 14.277 14.277 0 0 1 389.542 87.364 A 7.319 7.319 0 0 1 385.218 88.36 A 8.498 8.498 0 0 1 384.023 88.207 Q 383.384 88.077 382.833 87.847 A 5.041 5.041 0 0 1 380.132 85.218 Q 378.773 82.297 378.783 77.904 A 61.813 61.813 0 0 1 378.976 73.286 A 82.861 82.861 0 0 1 379.533 68.221 A 183.552 183.552 0 0 0 380.45 60.508 A 161.928 161.928 0 0 0 380.671 58.035 A 52.764 52.764 0 0 0 380.854 53.666 Q 380.85 51.611 380.659 49.775 A 31.839 31.839 0 0 0 380.6 49.254 Q 380.249 46.352 378.762 44.688 A 5.898 5.898 0 0 0 377.627 43.706 Z M 198.184 4.531 L 198.135 16.257 A 15.206 15.206 0 0 1 198.876 15.568 A 13.429 13.429 0 0 1 199.123 15.359 A 17.422 17.422 0 0 1 199.901 14.754 A 20.127 20.127 0 0 1 200.192 14.544 A 52.346 52.346 0 0 0 202.487 12.564 A 63.007 63.007 0 0 0 203.896 11.238 A 56.13 56.13 0 0 1 207.764 7.811 A 19.88 19.88 0 0 1 210.948 5.701 A 17.879 17.879 0 0 1 211.875 5.245 A 7.871 7.871 0 0 1 214.303 4.563 Q 214.711 4.519 215.122 4.52 A 7.51 7.51 0 0 1 216.224 4.607 Q 216.96 5.102 217.571 5.925 A 6.464 6.464 0 0 1 218.507 7.692 A 5.112 5.112 0 0 1 218.79 9.212 Q 218.792 9.291 218.792 9.369 A 4.824 4.824 0 0 1 218.786 9.579 A 3.327 3.327 0 0 1 218.514 10.771 A 3.125 3.125 0 0 1 218.246 11.258 Q 215.195 15.345 211.205 18.444 Q 207.215 21.543 203.675 24.89 A 65.075 65.075 0 0 1 211.715 33.534 A 6363.104 6363.104 0 0 1 218.556 42.388 A 5816.586 5816.586 0 0 1 218.77 42.666 A 6.001 6.001 0 0 1 219.414 45.384 Q 219.412 46.042 219.265 46.719 A 7.072 7.072 0 0 1 219.244 46.809 A 4.387 4.387 0 0 1 217.12 49.728 A 5.568 5.568 0 0 1 216.689 49.955 A 3.258 3.258 0 0 1 215.663 50.456 Q 214.87 50.677 213.988 50.444 A 4.522 4.522 0 0 1 213.367 50.228 A 10.375 10.375 0 0 1 210.056 47.96 Q 207.448 44.013 204.47 40.392 Q 201.493 36.771 198.063 33.231 L 198.007 46.597 A 6.194 6.194 0 0 1 197.833 48.082 A 4.068 4.068 0 0 1 196.433 50.321 A 5.669 5.669 0 0 1 194.634 51.321 A 5.183 5.183 0 0 1 192.984 51.578 A 5.282 5.282 0 0 1 189.695 50.412 A 6.652 6.652 0 0 1 189.546 50.292 A 4.097 4.097 0 0 1 188.135 47.911 A 6.321 6.321 0 0 1 188.003 46.555 L 188.18 4.489 A 5.002 5.002 0 0 1 188.37 3.094 A 3.639 3.639 0 0 1 189.752 1.134 A 5.673 5.673 0 0 1 193.201 0 A 5.673 5.673 0 0 1 196.64 1.163 A 3.731 3.731 0 0 1 198.141 3.801 A 5.58 5.58 0 0 1 198.184 4.531 Z M 284.384 11.551 L 282.266 23.084 A 15.206 15.206 0 0 1 283.116 22.537 A 13.429 13.429 0 0 1 283.396 22.375 A 17.422 17.422 0 0 1 284.269 21.916 A 20.127 20.127 0 0 1 284.593 21.761 A 52.346 52.346 0 0 0 287.202 20.217 A 63.007 63.007 0 0 0 288.822 19.161 A 56.13 56.13 0 0 1 293.235 16.47 A 19.88 19.88 0 0 1 296.741 14.955 A 17.879 17.879 0 0 1 297.734 14.67 A 7.871 7.871 0 0 1 300.244 14.428 Q 300.654 14.456 301.058 14.53 A 7.51 7.51 0 0 1 302.127 14.81 A 5.153 5.153 0 0 1 302.877 15.737 A 6.479 6.479 0 0 1 303.221 16.345 A 6.464 6.464 0 0 1 303.83 18.249 Q 303.965 19.126 303.814 19.951 A 4.824 4.824 0 0 1 303.771 20.156 A 3.327 3.327 0 0 1 303.293 21.282 A 3.125 3.125 0 0 1 302.943 21.713 A 37.329 37.329 0 0 1 294.744 27.544 Q 290.27 29.89 286.194 32.56 A 65.075 65.075 0 0 1 292.583 42.487 A 6363.104 6363.104 0 0 1 297.753 52.409 A 5816.586 5816.586 0 0 1 297.915 52.721 A 6.001 6.001 0 0 1 298.069 55.51 Q 297.951 56.157 297.686 56.797 A 7.072 7.072 0 0 1 297.651 56.883 A 4.387 4.387 0 0 1 295.044 59.38 A 5.568 5.568 0 0 1 294.58 59.528 A 3.258 3.258 0 0 1 293.482 59.84 Q 292.662 59.917 291.835 59.532 A 4.522 4.522 0 0 1 291.262 59.211 Q 289.588 58.111 288.403 56.393 A 89.989 89.989 0 0 0 284.241 47.958 Q 281.949 43.869 279.199 39.779 L 276.784 52.925 A 6.194 6.194 0 0 1 276.351 54.356 A 4.068 4.068 0 0 1 274.578 56.313 A 5.669 5.669 0 0 1 272.63 56.98 A 5.183 5.183 0 0 1 270.961 56.941 A 5.282 5.282 0 0 1 267.929 55.212 A 6.652 6.652 0 0 1 267.803 55.068 A 4.097 4.097 0 0 1 266.835 52.476 A 6.321 6.321 0 0 1 266.945 51.117 L 274.545 9.743 A 5.002 5.002 0 0 1 274.978 8.404 A 3.639 3.639 0 0 1 276.684 6.718 A 5.673 5.673 0 0 1 280.279 6.211 A 5.673 5.673 0 0 1 283.459 7.963 A 3.731 3.731 0 0 1 284.471 10.825 A 5.58 5.58 0 0 1 284.384 11.551 Z M 62.944 70.46 A 5.656 5.656 0 0 0 62.695 69.098 A 82.309 82.309 0 0 0 60.629 63.127 Q 59.466 60.138 58.177 57.015 A 736.268 736.268 0 0 0 68.716 53.907 A 719.898 719.898 0 0 1 79.177 50.822 A 147.779 147.779 0 0 1 80.529 56.839 A 65.273 65.273 0 0 0 82.038 62.808 Q 82.262 63.546 82.6 64.119 A 3.824 3.824 0 0 0 84.383 65.739 A 5.891 5.891 0 0 0 84.54 65.805 A 4.648 4.648 0 0 0 87.71 65.973 A 4.879 4.879 0 0 0 89.173 65.248 A 5.545 5.545 0 0 0 90.438 63.947 A 3.664 3.664 0 0 0 91.1 61.585 A 5.656 5.656 0 0 0 90.851 60.222 A 77.408 77.408 0 0 0 90.507 57.484 A 89.722 89.722 0 0 0 89.142 50.201 A 65.696 65.696 0 0 0 87.977 45.812 A 62.803 62.803 0 0 0 85.98 40.192 A 48.076 48.076 0 0 0 85.731 39.595 A 43.354 43.354 0 0 0 81.176 31.409 A 25.434 25.434 0 0 0 80.032 29.919 A 21.291 21.291 0 0 0 74.526 25.156 A 16.981 16.981 0 0 0 71.386 23.698 A 19.236 19.236 0 0 0 65.852 22.687 Q 60.994 22.488 54.899 25.278 A 30.872 30.872 0 0 0 52.632 26.384 Q 49.339 28.168 47.561 30.329 A 13.226 13.226 0 0 0 44.638 36.656 A 18.601 18.601 0 0 0 44.4 40.052 A 23.613 23.613 0 0 0 44.859 44.172 A 78.208 78.208 0 0 0 45.409 46.733 A 92.042 92.042 0 0 0 46.988 52.609 A 74.142 74.142 0 0 0 47.325 53.756 A 73.712 73.712 0 0 0 50.435 62.146 A 73.712 73.712 0 0 1 53.545 70.536 A 74.142 74.142 0 0 1 53.882 71.683 A 7.536 7.536 0 0 0 53.889 71.706 Q 54.111 72.431 54.444 72.995 A 3.824 3.824 0 0 0 56.227 74.614 A 5.891 5.891 0 0 0 56.385 74.68 A 4.648 4.648 0 0 0 59.554 74.848 A 4.879 4.879 0 0 0 61.017 74.124 A 5.545 5.545 0 0 0 62.282 72.822 A 3.664 3.664 0 0 0 62.944 70.46 Z M 149.568 51.281 A 5.656 5.656 0 0 0 149.594 49.896 A 82.309 82.309 0 0 0 148.755 43.634 A 321.675 321.675 0 0 0 147.566 37.157 A 736.268 736.268 0 0 0 158.513 36.204 A 719.898 719.898 0 0 1 169.379 35.259 A 147.779 147.779 0 0 1 169.508 41.424 A 65.273 65.273 0 0 0 169.802 47.574 A 7.536 7.536 0 0 0 169.804 47.598 Q 169.878 48.352 170.092 48.971 A 3.824 3.824 0 0 0 171.517 50.913 A 5.891 5.891 0 0 0 171.658 51.009 A 4.648 4.648 0 0 0 174.731 51.803 A 4.879 4.879 0 0 0 176.309 51.383 A 5.545 5.545 0 0 0 177.807 50.359 Q 179.169 49.077 178.952 46.791 A 77.408 77.408 0 0 0 179.16 44.039 A 89.722 89.722 0 0 0 179.269 36.631 A 65.696 65.696 0 0 0 178.999 32.097 A 62.803 62.803 0 0 0 178.158 26.193 A 48.076 48.076 0 0 0 178.032 25.558 A 43.354 43.354 0 0 0 175.195 16.63 A 25.434 25.434 0 0 0 174.369 14.942 A 21.291 21.291 0 0 0 169.92 9.181 A 16.981 16.981 0 0 0 167.132 7.128 A 19.236 19.236 0 0 0 161.909 5.037 Q 158.198 4.126 153.372 4.871 A 36.417 36.417 0 0 0 150.659 5.401 A 30.872 30.872 0 0 0 148.218 6.034 Q 146.539 6.547 145.171 7.207 A 13.733 13.733 0 0 0 142.465 8.893 A 13.226 13.226 0 0 0 138.342 14.513 A 18.601 18.601 0 0 0 137.435 17.794 A 23.613 23.613 0 0 0 137.066 21.923 A 78.208 78.208 0 0 0 137.096 24.543 A 92.042 92.042 0 0 0 137.476 30.615 A 74.142 74.142 0 0 0 137.579 31.807 A 73.712 73.712 0 0 0 138.96 40.647 A 73.712 73.712 0 0 1 140.34 49.488 A 74.142 74.142 0 0 1 140.443 50.679 A 7.536 7.536 0 0 0 140.446 50.703 Q 140.519 51.457 140.733 52.076 A 3.824 3.824 0 0 0 142.159 54.017 A 5.891 5.891 0 0 0 142.3 54.113 A 4.648 4.648 0 0 0 145.373 54.908 A 4.879 4.879 0 0 0 146.951 54.488 A 5.545 5.545 0 0 0 148.449 53.464 A 3.664 3.664 0 0 0 149.568 51.281 Z M 314.578 62.739 A 5.656 5.656 0 0 0 315.11 61.461 Q 315.971 58.466 316.619 55.325 A 321.675 321.675 0 0 0 317.882 48.862 A 736.268 736.268 0 0 0 328.419 51.979 A 719.898 719.898 0 0 1 338.877 55.074 A 147.779 147.779 0 0 1 336.743 60.86 A 65.273 65.273 0 0 0 334.766 66.69 Q 334.553 67.432 334.525 68.096 A 3.824 3.824 0 0 0 335.142 70.425 A 5.891 5.891 0 0 0 335.238 70.566 A 4.648 4.648 0 0 0 337.808 72.429 A 4.879 4.879 0 0 0 339.43 72.616 A 5.545 5.545 0 0 0 341.198 72.21 A 3.664 3.664 0 0 0 343.038 70.587 A 5.656 5.656 0 0 0 343.569 69.309 A 77.408 77.408 0 0 0 344.769 66.823 A 89.722 89.722 0 0 0 347.58 59.968 A 65.696 65.696 0 0 0 348.987 55.65 A 62.803 62.803 0 0 0 350.364 49.847 A 48.076 48.076 0 0 0 350.479 49.21 A 43.354 43.354 0 0 0 351.104 39.863 A 25.434 25.434 0 0 0 350.953 37.99 A 21.291 21.291 0 0 0 348.919 31 A 16.981 16.981 0 0 0 347.075 28.07 A 19.236 19.236 0 0 0 342.979 24.214 A 17.619 17.619 0 0 0 340.168 22.607 Q 337.92 21.573 335.094 20.937 A 36.417 36.417 0 0 0 332.376 20.438 A 30.872 30.872 0 0 0 329.872 20.134 Q 328.122 19.998 326.607 20.111 A 13.733 13.733 0 0 0 323.471 20.691 Q 319.949 21.811 317.579 24.414 A 18.601 18.601 0 0 0 315.534 27.135 A 23.613 23.613 0 0 0 313.681 30.844 A 78.208 78.208 0 0 0 312.751 33.292 A 92.042 92.042 0 0 0 310.883 39.083 A 74.142 74.142 0 0 0 310.543 40.23 A 73.712 73.712 0 0 0 308.595 48.963 A 73.712 73.712 0 0 1 306.647 57.696 A 74.142 74.142 0 0 1 306.307 58.842 Q 306.093 59.583 306.066 60.248 A 3.824 3.824 0 0 0 306.682 62.577 A 5.891 5.891 0 0 0 306.779 62.718 A 4.648 4.648 0 0 0 309.348 64.581 A 4.879 4.879 0 0 0 310.97 64.768 A 5.545 5.545 0 0 0 312.739 64.362 A 3.664 3.664 0 0 0 314.578 62.739 Z M 0.036 46.472 A 5.236 5.236 0 0 0 0.409 47.815 A 73.85 73.85 0 0 1 0.628 48.347 A 80.471 80.471 0 0 1 3.508 56.74 Q 4.84 61.426 6.361 66.034 A 87.032 87.032 0 0 0 8.673 72.242 A 82.463 82.463 0 0 0 9.833 74.892 A 29.647 29.647 0 0 0 14.893 82.555 A 15.48 15.48 0 0 0 17.228 84.594 A 11.045 11.045 0 0 0 21.444 86.442 A 17.681 17.681 0 0 0 21.887 86.524 A 18.376 18.376 0 0 0 28.708 86.39 A 30.931 30.931 0 0 0 34.482 84.608 A 34.015 34.015 0 0 0 36.065 83.9 A 214.815 214.815 0 0 0 38.292 82.82 A 183.771 183.771 0 0 0 42.899 80.473 A 6.272 6.272 0 0 0 43.351 80.2 A 4.484 4.484 0 0 0 45.358 77.316 Q 45.793 75.269 45.051 73.49 A 5.108 5.108 0 0 0 42.66 70.845 A 3.229 3.229 0 0 0 40.781 70.484 Q 40.127 70.553 39.426 70.868 A 6.272 6.272 0 0 0 38.986 71.088 A 54.169 54.169 0 0 0 36.739 72.084 A 43.338 43.338 0 0 0 33.776 73.616 A 41.837 41.837 0 0 1 31.631 74.753 A 52.33 52.33 0 0 1 28.567 76.143 A 16.078 16.078 0 0 1 27.637 76.342 Q 26.705 76.511 26.006 76.5 A 5.89 5.89 0 0 1 25.533 76.474 A 4.927 4.927 0 0 1 24.12 76.131 A 5.485 5.485 0 0 1 23.671 75.922 A 6.138 6.138 0 0 1 22.498 75.119 A 15.812 15.812 0 0 1 22.13 74.791 Q 21.51 74.221 20.776 73.439 A 35.371 35.371 0 0 1 17.627 67.529 A 35.948 35.948 0 0 1 17.211 66.485 A 97.124 97.124 0 0 1 14.695 58.961 A 787.867 787.867 0 0 1 12.505 51.257 A 63.746 63.746 0 0 0 9.946 43.839 A 5.692 5.692 0 0 0 9.544 43.047 A 3.726 3.726 0 0 0 7.144 41.276 A 5.973 5.973 0 0 0 3.41 41.589 A 5.973 5.973 0 0 0 0.56 44.021 A 3.647 3.647 0 0 0 0.036 46.472 Z M 105.904 40.478 L 109.117 56.811 A 5.834 5.834 0 0 1 109.234 58.167 Q 109.191 59.24 108.67 60.063 A 3.628 3.628 0 0 1 108.374 60.467 A 5.261 5.261 0 0 1 106.925 61.682 A 4.804 4.804 0 0 1 105.498 62.203 A 4.899 4.899 0 0 1 102.357 61.775 A 6.144 6.144 0 0 1 102.178 61.686 A 3.749 3.749 0 0 1 102.153 61.672 Q 100.549 60.821 100.108 58.595 A 7.399 7.399 0 0 1 100.106 58.583 A 9286.513 9286.513 0 0 1 98.764 52.051 Q 98.239 49.493 97.773 47.21 A 4546.188 4546.188 0 0 1 96.898 42.918 A 2802.794 2802.794 0 0 1 96.275 39.841 Q 95.443 35.726 94.845 32.691 A 940.785 940.785 0 0 1 94.761 32.265 L 93.455 25.627 L 92.727 21.926 A 67.053 67.053 0 0 1 92.626 21.403 Q 92.464 20.54 92.427 20.188 A 8.404 8.404 0 0 1 92.384 19.531 A 7.461 7.461 0 0 1 92.382 19.32 A 10.746 10.746 0 0 1 95.816 14.048 A 16.362 16.362 0 0 1 101.478 10.97 A 20.281 20.281 0 0 1 103.653 10.417 Q 105.601 10.034 107.704 10.004 A 25.257 25.257 0 0 1 108.308 10.003 A 21.856 21.856 0 0 1 115.267 11.182 A 19.01 19.01 0 0 1 121.175 14.45 A 13.139 13.139 0 0 1 125.058 19.745 A 21.729 21.729 0 0 1 125.649 21.541 Q 126.215 23.57 126.233 25.348 A 10.051 10.051 0 0 1 125.949 27.885 A 11.53 11.53 0 0 1 122.312 33.823 A 19.577 19.577 0 0 1 118.941 36.21 Q 117.267 37.16 115.263 37.926 A 48.552 48.552 0 0 1 109.632 39.682 Q 108.281 40.018 106.865 40.297 A 61.625 61.625 0 0 1 105.904 40.478 Z M 267.057 10.142 L 262.052 50.423 Q 261.773 52.667 260.405 53.794 A 4.146 4.146 0 0 1 259.939 54.126 A 6.012 6.012 0 0 1 257.933 54.928 A 5.49 5.49 0 0 1 256.197 54.984 A 5.599 5.599 0 0 1 252.94 53.397 A 7.023 7.023 0 0 1 252.778 53.237 A 4.2 4.2 0 0 1 251.616 50.719 Q 251.531 49.994 251.633 49.155 A 8.347 8.347 0 0 1 251.636 49.129 L 256.641 8.848 Q 256.92 6.604 258.288 5.477 A 4.146 4.146 0 0 1 258.754 5.145 A 6.012 6.012 0 0 1 260.76 4.343 A 5.49 5.49 0 0 1 262.496 4.287 A 5.599 5.599 0 0 1 265.753 5.874 A 7.023 7.023 0 0 1 265.915 6.034 A 4.2 4.2 0 0 1 267.077 8.552 Q 267.162 9.277 267.06 10.116 A 8.347 8.347 0 0 1 267.057 10.142 Z M 343.066 40.861 A 7.928 7.928 0 0 0 342.906 38.997 A 10.377 10.377 0 0 0 339.847 33.467 A 14.303 14.303 0 0 0 334.452 30.262 A 16.603 16.603 0 0 0 334.142 30.161 A 15.935 15.935 0 0 0 333.783 30.053 Q 331.75 29.468 329.796 29.5 A 12.165 12.165 0 0 0 327.701 29.716 A 9.566 9.566 0 0 0 322.35 32.741 A 7.629 7.629 0 0 0 320.943 34.962 Q 320.13 36.889 320.056 39.58 A 19.462 19.462 0 0 0 320.05 39.844 Q 325.386 41.465 330.745 43.007 Q 336.103 44.549 341.439 46.169 Q 342.99 43.349 343.066 40.861 Z M 168.507 26.034 A 16.033 16.033 0 0 0 168.64 24.286 Q 168.68 22.175 168.079 20.499 A 7.928 7.928 0 0 0 167.248 18.823 Q 165.419 16.031 162.378 14.794 A 14.303 14.303 0 0 0 156.185 13.785 A 16.603 16.603 0 0 0 155.86 13.804 A 15.935 15.935 0 0 0 155.487 13.835 Q 153.38 14.034 151.573 14.779 A 12.165 12.165 0 0 0 149.702 15.746 A 9.566 9.566 0 0 0 145.829 20.518 Q 144.671 23.509 146.195 27.723 A 19.462 19.462 0 0 0 146.286 27.97 A 758.408 758.408 0 0 0 157.396 27.002 Q 162.948 26.478 168.507 26.034 Z M 76.49 41.955 A 16.033 16.033 0 0 0 76.273 40.214 Q 75.893 38.138 74.971 36.615 A 7.928 7.928 0 0 0 73.824 35.137 A 10.377 10.377 0 0 0 68.251 32.156 A 14.303 14.303 0 0 0 61.98 32.397 A 16.603 16.603 0 0 0 61.666 32.481 A 15.935 15.935 0 0 0 61.306 32.585 Q 58.183 33.532 56.016 35.607 Q 53.724 37.801 53.168 41.054 A 7.629 7.629 0 0 0 53.194 43.683 Q 53.558 45.742 54.958 48.042 A 19.462 19.462 0 0 0 55.097 48.267 A 758.408 758.408 0 0 0 65.793 45.111 A 758.408 758.408 0 0 1 76.49 41.955 Z M 102.121 21.248 L 104.147 31.547 A 25.989 25.989 0 0 0 106.409 31.693 Q 109.088 31.741 110.949 31.112 A 7.972 7.972 0 0 0 111.539 30.887 A 10.148 10.148 0 0 0 113.122 30.047 Q 113.968 29.49 114.54 28.814 A 5.062 5.062 0 0 0 115.199 27.827 A 5.187 5.187 0 0 0 115.68 24.394 A 6.156 6.156 0 0 0 115.541 23.831 A 6.473 6.473 0 0 0 113.156 20.415 Q 111.516 19.184 108.942 19.075 A 11.9 11.9 0 0 0 108.544 19.065 A 8.005 8.005 0 0 0 107.159 19.178 Q 105.238 19.498 103.021 20.722 A 21.473 21.473 0 0 0 102.121 21.248 Z" vector-effect="non-scaling-stroke" stroke-linecap="round" fill-rule="evenodd"></path></g><g id="" class="logo--name svgSloganText_1 sloganBox" transform="scale(1) translate(198.40000009536743,380.39999923706057)" fill="#00aeef"><path d="M12.20 0L3.60 0L3.60-32.50L12.20-32.50L12.20 0ZM27.10 0L18.70 0L18.70-34.80L27.10-34.80L27.10-16.30L27.30-16.30L34.20-25L43.50-25L34.60-14.60L44 0L34.70 0L29.70-8.90L27.10-6L27.10 0ZM53.60 0.60L53.60 0.60L53.60 0.60Q51.85 0.60 50.45-0.03L50.45-0.03L50.45-0.03Q49.05-0.65 48.08-1.70L48.08-1.70L48.08-1.70Q47.10-2.75 46.60-4.15L46.60-4.15L46.60-4.15Q46.10-5.55 46.10-7.10L46.10-7.10L46.10-7.10Q46.10-11 49.30-13.23L49.30-13.23L49.30-13.23Q52.50-15.45 59.70-16.20L59.70-16.20L59.70-16.20Q59.40-18.80 56.20-18.80L56.20-18.80L56.20-18.80Q54.85-18.80 53.35-18.28L53.35-18.28L53.35-18.28Q51.85-17.75 49.90-16.70L49.90-16.70L46.90-22.30L46.90-22.30Q49.55-23.90 52.25-24.75L52.25-24.75L52.25-24.75Q54.95-25.60 57.90-25.60L57.90-25.60L57.90-25.60Q62.75-25.60 65.53-22.83L65.53-22.83L65.53-22.83Q68.30-20.05 68.30-13.90L68.30-13.90L68.30 0L61.30 0L60.70-2.40L60.50-2.40L60.50-2.40Q59-1.05 57.33-0.23L57.33-0.23L57.33-0.23Q55.65 0.60 53.60 0.60ZM56.60-6L56.60-6L56.60-6Q57.65-6 58.33-6.48L58.33-6.48L58.33-6.48Q59-6.95 59.70-7.70L59.70-7.70L59.70-11.10L59.70-11.10Q56.60-10.65 55.45-9.75L55.45-9.75L55.45-9.75Q54.30-8.85 54.30-7.80L54.30-7.80L54.30-7.80Q54.30-6 56.60-6ZM82.50 0L73.90 0L73.90-25L80.90-25L81.50-22L81.70-22L81.70-22Q83.20-23.45 85.13-24.53L85.13-24.53L85.13-24.53Q87.05-25.60 89.60-25.60L89.60-25.60L89.60-25.60Q93.70-25.60 95.55-22.83L95.55-22.83L95.55-22.83Q97.40-20.05 97.40-15.40L97.40-15.40L97.40 0L88.80 0L88.80-14.30L88.80-14.30Q88.80-16.70 88.20-17.50L88.20-17.50L88.20-17.50Q87.60-18.30 86.30-18.30L86.30-18.30L86.30-18.30Q85.10-18.30 84.30-17.80L84.30-17.80L84.30-17.80Q83.50-17.30 82.50-16.40L82.50-16.40L82.50 0ZM124 0.60L124 0.60L124 0.60Q120.90 0.60 117.63-0.53L117.63-0.53L117.63-0.53Q114.35-1.65 111.70-4.05L111.70-4.05L116.60-9.95L116.60-9.95Q118.35-8.55 120.38-7.68L120.38-7.68L120.38-7.68Q122.40-6.80 124.20-6.80L124.20-6.80L124.20-6.80Q126.15-6.80 127.02-7.40L127.02-7.40L127.02-7.40Q127.90-8 127.90-9.10L127.90-9.10L127.90-9.10Q127.90-9.70 127.60-10.10L127.60-10.10L127.60-10.10Q127.30-10.50 126.72-10.85L126.72-10.85L126.72-10.85Q126.15-11.20 125.35-11.53L125.35-11.53L125.35-11.53Q124.55-11.85 123.50-12.25L123.50-12.25L119.45-13.95L119.45-13.95Q118.15-14.45 116.95-15.28L116.95-15.28L116.95-15.28Q115.75-16.10 114.85-17.23L114.85-17.23L114.85-17.23Q113.95-18.35 113.42-19.80L113.42-19.80L113.42-19.80Q112.90-21.25 112.90-23L112.90-23L112.90-23Q112.90-25.10 113.80-26.93L113.80-26.93L113.80-26.93Q114.70-28.75 116.30-30.13L116.30-30.13L116.30-30.13Q117.90-31.50 120.13-32.30L120.13-32.30L120.13-32.30Q122.35-33.10 125-33.10L125-33.10L125-33.10Q127.80-33.10 130.68-32.05L130.68-32.05L130.68-32.05Q133.55-31 135.80-28.75L135.80-28.75L131.50-23.35L131.50-23.35Q129.85-24.50 128.32-25.10L128.32-25.10L128.32-25.10Q126.80-25.70 125-25.70L125-25.70L125-25.70Q123.40-25.70 122.50-25.15L122.50-25.15L122.50-25.15Q121.60-24.60 121.60-23.50L121.60-23.50L121.60-23.50Q121.60-22.35 122.88-21.73L122.88-21.73L122.88-21.73Q124.15-21.10 126.40-20.25L126.40-20.25L130.35-18.70L130.35-18.70Q133.40-17.50 135.05-15.35L135.05-15.35L135.05-15.35Q136.70-13.20 136.70-9.80L136.70-9.80L136.70-9.80Q136.70-7.75 135.85-5.85L135.85-5.85L135.85-5.85Q135-3.95 133.38-2.53L133.38-2.53L133.38-2.53Q131.75-1.10 129.40-0.25L129.40-0.25L129.40-0.25Q127.05 0.60 124 0.60ZM152.80 0.60L152.80 0.60L152.80 0.60Q150.05 0.60 147.70-0.28L147.70-0.28L147.70-0.28Q145.35-1.15 143.63-2.83L143.63-2.83L143.63-2.83Q141.90-4.50 140.90-6.95L140.90-6.95L140.90-6.95Q139.90-9.40 139.90-12.50L139.90-12.50L139.90-12.50Q139.90-15.55 140.93-17.98L140.93-17.98L140.93-17.98Q141.95-20.40 143.63-22.10L143.63-22.10L143.63-22.10Q145.30-23.80 147.45-24.70L147.45-24.70L147.45-24.70Q149.60-25.60 151.90-25.60L151.90-25.60L151.90-25.60Q154.65-25.60 156.70-24.65L156.70-24.65L156.70-24.65Q158.75-23.70 160.10-22.05L160.10-22.05L160.10-22.05Q161.45-20.40 162.13-18.20L162.13-18.20L162.13-18.20Q162.80-16 162.80-13.50L162.80-13.50L162.80-13.50Q162.80-12.35 162.68-11.35L162.68-11.35L162.68-11.35Q162.55-10.35 162.45-9.90L162.45-9.90L148.20-9.90L148.20-9.90Q148.80-7.65 150.35-6.78L150.35-6.78L150.35-6.78Q151.90-5.90 154-5.90L154-5.90L154-5.90Q155.30-5.90 156.53-6.28L156.53-6.28L156.53-6.28Q157.75-6.65 159.10-7.40L159.10-7.40L161.90-2.30L161.90-2.30Q159.85-0.85 157.38-0.13L157.38-0.13L157.38-0.13Q154.90 0.60 152.80 0.60ZM148.10-15.50L148.10-15.50L155.50-15.50L155.50-15.50Q155.50-16.95 154.78-18.03L154.78-18.03L154.78-18.03Q154.05-19.10 152.10-19.10L152.10-19.10L152.10-19.10Q150.65-19.10 149.58-18.25L149.58-18.25L149.58-18.25Q148.50-17.40 148.10-15.50ZM176.60 10.30L176.60 10.30L176.60 10.30Q174.45 10.30 172.55 9.98L172.55 9.98L172.55 9.98Q170.65 9.65 169.23 8.90L169.23 8.90L169.23 8.90Q167.80 8.15 166.95 6.98L166.95 6.98L166.95 6.98Q166.10 5.80 166.10 4.10L166.10 4.10L166.10 4.10Q166.10 1.15 169.60-0.70L169.60-0.70L169.60-0.90L169.60-0.90Q168.60-1.60 167.95-2.60L167.95-2.60L167.95-2.60Q167.30-3.60 167.30-5.20L167.30-5.20L167.30-5.20Q167.30-6.50 168.05-7.75L168.05-7.75L168.05-7.75Q168.80-9 170.10-9.90L170.10-9.90L170.10-10.10L170.10-10.10Q168.75-11 167.73-12.65L167.73-12.65L167.73-12.65Q166.70-14.30 166.70-16.50L166.70-16.50L166.70-16.50Q166.70-18.80 167.60-20.53L167.60-20.53L167.60-20.53Q168.50-22.25 170.00-23.38L170.00-23.38L170.00-23.38Q171.50-24.50 173.43-25.05L173.43-25.05L173.43-25.05Q175.35-25.60 177.40-25.60L177.40-25.60L177.40-25.60Q179.60-25.60 181.40-25L181.40-25L190.70-25L190.70-18.80L187.10-18.80L187.10-18.80Q187.25-18.35 187.38-17.65L187.38-17.65L187.38-17.65Q187.50-16.95 187.50-16.20L187.50-16.20L187.50-16.20Q187.50-14 186.70-12.43L186.70-12.43L186.70-12.43Q185.90-10.85 184.55-9.85L184.55-9.85L184.55-9.85Q183.20-8.85 181.35-8.38L181.35-8.38L181.35-8.38Q179.50-7.90 177.40-7.90L177.40-7.90L177.40-7.90Q176.15-7.90 174.60-8.25L174.60-8.25L174.60-8.25Q174.20-7.90 174.10-7.63L174.10-7.63L174.10-7.63Q174.00-7.35 174.00-6.80L174.00-6.80L174.00-6.80Q174.00-5.95 174.80-5.63L174.80-5.63L174.80-5.63Q175.60-5.30 177.50-5.30L177.50-5.30L181.25-5.30L181.25-5.30Q185.95-5.30 188.53-3.78L188.53-3.78L188.53-3.78Q191.10-2.25 191.10 1.20L191.10 1.20L191.10 1.20Q191.10 3.25 190.08 4.93L190.08 4.93L190.08 4.93Q189.05 6.60 187.18 7.80L187.18 7.80L187.18 7.80Q185.30 9 182.63 9.65L182.63 9.65L182.63 9.65Q179.95 10.30 176.60 10.30ZM177.40-13L177.40-13L177.40-13Q178.60-13 179.35-13.85L179.35-13.85L179.35-13.85Q180.10-14.70 180.10-16.50L180.10-16.50L180.10-16.50Q180.10-18.25 179.35-19.07L179.35-19.07L179.35-19.07Q178.60-19.90 177.40-19.90L177.40-19.90L177.40-19.90Q176.20-19.90 175.45-19.07L175.45-19.07L175.45-19.07Q174.70-18.25 174.70-16.50L174.70-16.50L174.70-16.50Q174.70-14.70 175.45-13.85L175.45-13.85L175.45-13.85Q176.20-13 177.40-13ZM178.00 5L178.00 5L178.00 5Q180.10 5 181.50 4.38L181.50 4.38L181.50 4.38Q182.90 3.75 182.90 2.70L182.90 2.70L182.90 2.70Q182.90 1.70 182.03 1.45L182.03 1.45L182.03 1.45Q181.15 1.20 179.55 1.20L179.55 1.20L177.60 1.20L177.60 1.20Q176.10 1.20 175.33 1.13L175.33 1.13L175.33 1.13Q174.55 1.05 174.00 0.90L174.00 0.90L174.00 0.90Q173.55 1.35 173.33 1.75L173.33 1.75L173.33 1.75Q173.10 2.15 173.10 2.70L173.10 2.70L173.10 2.70Q173.10 3.90 174.45 4.45L174.45 4.45L174.45 4.45Q175.80 5 178.00 5ZM201.30 0.60L201.30 0.60L201.30 0.60Q199.55 0.60 198.15-0.03L198.15-0.03L198.15-0.03Q196.75-0.65 195.78-1.70L195.78-1.70L195.78-1.70Q194.80-2.75 194.30-4.15L194.30-4.15L194.30-4.15Q193.80-5.55 193.80-7.10L193.80-7.10L193.80-7.10Q193.80-11 197.00-13.23L197.00-13.23L197.00-13.23Q200.20-15.45 207.40-16.20L207.40-16.20L207.40-16.20Q207.10-18.80 203.90-18.80L203.90-18.80L203.90-18.80Q202.55-18.80 201.05-18.28L201.05-18.28L201.05-18.28Q199.55-17.75 197.60-16.70L197.60-16.70L194.60-22.30L194.60-22.30Q197.25-23.90 199.95-24.75L199.95-24.75L199.95-24.75Q202.65-25.60 205.60-25.60L205.60-25.60L205.60-25.60Q210.45-25.60 213.23-22.83L213.23-22.83L213.23-22.83Q216.00-20.05 216.00-13.90L216.00-13.90L216.00 0L209.00 0L208.40-2.40L208.20-2.40L208.20-2.40Q206.70-1.05 205.03-0.23L205.03-0.23L205.03-0.23Q203.35 0.60 201.30 0.60ZM204.30-6L204.30-6L204.30-6Q205.35-6 206.03-6.48L206.03-6.48L206.03-6.48Q206.70-6.95 207.40-7.70L207.40-7.70L207.40-11.10L207.40-11.10Q204.30-10.65 203.15-9.75L203.15-9.75L203.15-9.75Q202.00-8.85 202.00-7.80L202.00-7.80L202.00-7.80Q202.00-6 204.30-6ZM230.20 0L221.60 0L221.60-25L228.60-25L229.20-20.70L229.40-20.70L229.40-20.70Q230.80-23.25 232.73-24.43L232.73-24.43L232.73-24.43Q234.65-25.60 236.50-25.60L236.50-25.60L236.50-25.60Q237.65-25.60 238.35-25.48L238.35-25.48L238.35-25.48Q239.05-25.35 239.60-25.10L239.60-25.10L238.20-17.70L238.20-17.70Q237.50-17.85 236.88-17.98L236.88-17.98L236.88-17.98Q236.25-18.10 235.40-18.10L235.40-18.10L235.40-18.10Q234.05-18.10 232.58-17.18L232.58-17.18L232.58-17.18Q231.10-16.25 230.20-13.90L230.20-13.90L230.20 0Z"></path></g></g></g></g></svg>